Piscolabis-Regular.ufo
<glyph name="exclam" format="2">
  <advance width="212"/>
  <unicode hex="0021"/>
  <outline>
    <contour>
      <point x="71.5" y="138" type="line"/>
      <point x="140.5" y="138" type="line"/>
      <point x="172" y="700" type="line"/>
      <point x="40" y="700" type="line"/>
    </contour>
    <component base="period" xOffset="29" identifier="6AD3E758"/>
  </outline>
</glyph>
<glyph name="numbersign" format="2">
  <advance width="425"/>
  <unicode hex="0023"/>
  <outline>
    <contour>
      <point x="213" y="-50" type="line"/>
      <point x="295.5" y="-50" type="line"/>
      <point x="389" y="700" type="line"/>
      <point x="306.5" y="700" type="line"/>
    </contour>
    <contour>
      <point x="16" y="159" type="line"/>
      <point x="375" y="159" type="line"/>
      <point x="375" y="239" type="line"/>
      <point x="16" y="239" type="line"/>
    </contour>
    <contour>
      <point x="30" y="-50" type="line"/>
      <point x="112.5" y="-50" type="line"/>
      <point x="206" y="700" type="line"/>
      <point x="123.5" y="700" type="line"/>
    </contour>
    <contour>
      <point x="50" y="431" type="line"/>
      <point x="409" y="431" type="line"/>
      <point x="409" y="511" type="line"/>
      <point x="50" y="511" type="line"/>
    </contour>
  </outline>
</glyph>
<glyph name="dollar" format="2">
  <advance width="368"/>
  <unicode hex="0024"/>
  <guideline x="351" y="710" angle="0"/>
  <anchor x="186" y="0" name="bottom"/>
  <anchor x="208" y="700" name="top"/>
  <outline>
    <contour>
      <point x="186" y="-10" type="curve" smooth="yes"/>
      <point x="274" y="-10"/>
      <point x="352" y="61"/>
      <point x="352" y="166" type="curve" smooth="yes"/>
      <point x="352" y="242.5"/>
      <point x="310" y="290"/>
      <point x="241" y="383" type="curve" smooth="yes"/>
      <point x="222.5" y="408" type="line" smooth="yes"/>
      <point x="179" y="467"/>
      <point x="129.5" y="496"/>
      <point x="129.5" y="551.5" type="curve" smooth="yes"/>
      <point x="129.5" y="592"/>
      <point x="156.5" y="610"/>
      <point x="188.5" y="610" type="curve" smooth="yes"/>
      <point x="223.5" y="610"/>
      <point x="267" y="588.5"/>
      <point x="286.5" y="558" type="curve"/>
      <point x="345.5" y="629" type="line"/>
      <point x="305.5" y="684.5"/>
      <point x="250" y="710"/>
      <point x="192" y="710" type="curve" smooth="yes"/>
      <point x="109" y="710"/>
      <point x="27" y="657.5"/>
      <point x="27" y="542" type="curve" smooth="yes"/>
      <point x="27" y="449.5"/>
      <point x="87" y="413"/>
      <point x="148" y="330.5" type="curve" smooth="yes"/>
      <point x="166.5" y="305.5" type="line" smooth="yes"/>
      <point x="201.5" y="258"/>
      <point x="247" y="206.5"/>
      <point x="247" y="158" type="curve" smooth="yes"/>
      <point x="247" y="118"/>
      <point x="216" y="90"/>
      <point x="182.5" y="90" type="curve" smooth="yes"/>
      <point x="144" y="90"/>
      <point x="111" y="127"/>
      <point x="98" y="189.5" type="curve"/>
      <point x="16" y="134" type="line"/>
      <point x="52.5" y="29"/>
      <point x="120.5" y="-10"/>
    </contour>
    <contour>
      <point x="165" y="-50" type="line"/>
      <point x="210" y="-50" type="line"/>
      <point x="210" y="750" type="line"/>
      <point x="165" y="750" type="line"/>
    </contour>
  </outline>
</glyph>
<glyph name="percent" format="2">
  <advance width="555"/>
  <unicode hex="0025"/>
  <outline>
    <contour>
      <point x="103" y="0" type="line"/>
      <point x="178" y="0" type="line"/>
      <point x="452" y="700" type="line"/>
      <point x="377" y="700" type="line"/>
    </contour>
    <contour>
      <point x="418" y="-5" type="curve" smooth="yes"/>
      <point x="491.5" y="-5"/>
      <point x="539" y="49"/>
      <point x="539" y="146" type="curve" smooth="yes"/>
      <point x="539" y="242.5"/>
      <point x="491.5" y="296.5"/>
      <point x="418" y="296.5" type="curve" smooth="yes"/>
      <point x="344.5" y="296.5"/>
      <point x="297" y="242.5"/>
      <point x="297" y="145.5" type="curve" smooth="yes"/>
      <point x="297" y="49"/>
      <point x="344.5" y="-5"/>
    </contour>
    <contour>
      <point x="418" y="61.5" type="curve" smooth="yes"/>
      <point x="388.5" y="61.5"/>
      <point x="371.5" y="93"/>
      <point x="371.5" y="145.5" type="curve" smooth="yes"/>
      <point x="371.5" y="198.5"/>
      <point x="388.5" y="230"/>
      <point x="418" y="230" type="curve" smooth="yes"/>
      <point x="447.5" y="230"/>
      <point x="464.5" y="198.5"/>
      <point x="464.5" y="145.5" type="curve" smooth="yes"/>
      <point x="464.5" y="93"/>
      <point x="447.5" y="61.5"/>
    </contour>
    <contour>
      <point x="137" y="403.5" type="curve" smooth="yes"/>
      <point x="210.5" y="403.5"/>
      <point x="258" y="457.5"/>
      <point x="258" y="554.5" type="curve" smooth="yes"/>
      <point x="258" y="651"/>
      <point x="210.5" y="705"/>
      <point x="137" y="705" type="curve" smooth="yes"/>
      <point x="63.5" y="705"/>
      <point x="16" y="651"/>
      <point x="16" y="554" type="curve" smooth="yes"/>
      <point x="16" y="457.5"/>
      <point x="63.5" y="403.5"/>
    </contour>
    <contour>
      <point x="137" y="470" type="curve" smooth="yes"/>
      <point x="107.5" y="470"/>
      <point x="90.5" y="501.5"/>
      <point x="90.5" y="554" type="curve" smooth="yes"/>
      <point x="90.5" y="607"/>
      <point x="107.5" y="638.5"/>
      <point x="137" y="638.5" type="curve" smooth="yes"/>
      <point x="166.5" y="638.5"/>
      <point x="183.5" y="607"/>
      <point x="183.5" y="554" type="curve" smooth="yes"/>
      <point x="183.5" y="501.5"/>
      <point x="166.5" y="470"/>
    </contour>
  </outline>
</glyph>
<glyph name="ampersand" format="2">
  <advance width="474.5"/>
  <unicode hex="0026"/>
  <outline>
    <contour>
      <point x="157" y="330.5" type="curve" smooth="yes"/>
      <point x="340.5" y="0" type="line"/>
      <point x="460.5" y="0" type="line"/>
      <point x="234.5" y="408" type="line" smooth="yes"/>
      <point x="199.5" y="471.5"/>
      <point x="176.5" y="513.5"/>
      <point x="176.5" y="551.5" type="curve" smooth="yes"/>
      <point x="176.5" y="590.5"/>
      <point x="201" y="610"/>
      <point x="229.5" y="610" type="curve" smooth="yes"/>
      <point x="259" y="610"/>
      <point x="298" y="590"/>
      <point x="316.5" y="548.5" type="curve"/>
      <point x="385" y="615.5" type="line"/>
      <point x="348" y="676.5"/>
      <point x="291.5" y="710"/>
      <point x="235.5" y="710" type="curve" smooth="yes"/>
      <point x="140.5" y="710"/>
      <point x="74" y="640"/>
      <point x="74" y="542" type="curve" smooth="yes"/>
      <point x="74" y="476"/>
      <point x="104.5" y="425.5"/>
    </contour>
    <contour>
      <point x="180" y="-10" type="curve" smooth="yes"/>
      <point x="245.5" y="-10"/>
      <point x="315" y="29"/>
      <point x="355" y="134" type="curve"/>
      <point x="273" y="189.5" type="line"/>
      <point x="256.5" y="127"/>
      <point x="222" y="90"/>
      <point x="183.5" y="90" type="curve" smooth="yes"/>
      <point x="150" y="90"/>
      <point x="119" y="118"/>
      <point x="119" y="158" type="curve" smooth="yes"/>
      <point x="119" y="209"/>
      <point x="162.5" y="289"/>
      <point x="190.5" y="333" type="curve" smooth="yes"/>
      <point x="208" y="360.5" type="line"/>
      <point x="148.5" y="423" type="line"/>
      <point x="128" y="395.5" type="line" smooth="yes"/>
      <point x="69" y="316.5"/>
      <point x="14" y="254"/>
      <point x="14" y="166" type="curve" smooth="yes"/>
      <point x="14" y="61"/>
      <point x="92" y="-10"/>
    </contour>
    <contour>
      <point x="339.5" y="192" type="line"/>
      <point x="455" y="396" type="line"/>
      <point x="335" y="396" type="line"/>
      <point x="287" y="210.5" type="line"/>
    </contour>
  </outline>
</glyph>
<glyph name="quotesingle" format="2">
  <advance width="142"/>
  <unicode hex="0027"/>
  <outline>
    <contour>
      <point x="70.5" y="460" type="line"/>
      <point x="126" y="700" type="line"/>
      <point x="36" y="708" type="line"/>
      <point x="26" y="466" type="line"/>
    </contour>
  </outline>
</glyph>
<glyph name="parenleft" format="2">
  <advance width="247"/>
  <unicode hex="0028"/>
  <outline>
    <contour>
      <point x="26" y="350" type="curve"/>
      <point x="135" y="350" type="line"/>
      <point x="135" y="498"/>
      <point x="164" y="600"/>
      <point x="217" y="725" type="curve"/>
      <point x="134.5" y="725" type="line"/>
      <point x="80.5" y="642"/>
      <point x="26" y="517"/>
    </contour>
    <contour>
      <point x="134.5" y="-25" type="curve"/>
      <point x="215.5" y="-25" type="line"/>
      <point x="162.5" y="100"/>
      <point x="135" y="202"/>
      <point x="135" y="350" type="curve"/>
      <point x="26" y="350" type="line"/>
      <point x="26" y="183"/>
      <point x="80.5" y="58"/>
    </contour>
  </outline>
</glyph>
<glyph name="parenright" format="2">
  <advance width="240"/>
  <unicode hex="0029"/>
  <outline>
    <contour>
      <point x="105" y="350" type="curve"/>
      <point x="214" y="350" type="line"/>
      <point x="214" y="517"/>
      <point x="159.5" y="642"/>
      <point x="105.5" y="725" type="curve"/>
      <point x="23" y="725" type="line"/>
      <point x="76" y="600"/>
      <point x="105" y="498"/>
    </contour>
    <contour>
      <point x="24.5" y="-25" type="curve"/>
      <point x="105.5" y="-25" type="line"/>
      <point x="159.5" y="58"/>
      <point x="214" y="183"/>
      <point x="214" y="350" type="curve"/>
      <point x="105" y="350" type="line"/>
      <point x="105" y="202"/>
      <point x="77.5" y="100"/>
    </contour>
  </outline>
</glyph>
<glyph name="asterisk" format="2">
  <advance width="293"/>
  <unicode hex="002A"/>
  <guideline x="146.5" y="573" angle="90"/>
  <outline>
    <contour>
      <point x="189" y="451.5" type="line"/>
      <point x="251" y="496.5" type="line"/>
      <point x="156.5" y="582" type="line"/>
      <point x="136.5" y="568" type="line"/>
    </contour>
    <contour>
      <point x="104" y="451.5" type="line"/>
      <point x="156.5" y="568" type="line"/>
      <point x="136.5" y="582" type="line"/>
      <point x="42" y="496.5" type="line"/>
    </contour>
    <contour>
      <point x="143" y="563.5" type="line"/>
      <point x="150" y="586.5" type="line"/>
      <point x="39.5" y="650" type="line"/>
      <point x="16" y="577.5" type="line"/>
    </contour>
    <contour>
      <point x="134.5" y="575" type="line"/>
      <point x="158.5" y="575" type="line"/>
      <point x="184.5" y="700" type="line"/>
      <point x="108.5" y="700" type="line"/>
    </contour>
    <contour>
      <point x="150" y="563.5" type="line"/>
      <point x="277" y="577.5" type="line"/>
      <point x="253.5" y="650" type="line"/>
      <point x="143" y="586.5" type="line"/>
    </contour>
  </outline>
</glyph>
<glyph name="plus" format="2">
  <advance width="360"/>
  <unicode hex="002B"/>
  <outline>
    <contour>
      <point x="137.5" y="120" type="line"/>
      <point x="222.5" y="120" type="line"/>
      <point x="222.5" y="450" type="line"/>
      <point x="137.5" y="450" type="line"/>
    </contour>
    <contour>
      <point x="20" y="242.5" type="line"/>
      <point x="340" y="242.5" type="line"/>
      <point x="340" y="327.5" type="line"/>
      <point x="20" y="327.5" type="line"/>
    </contour>
  </outline>
</glyph>
<glyph name="comma" format="2">
  <advance width="142"/>
  <unicode hex="002C"/>
  <guideline x="82.5" y="-143" angle="0"/>
  <guideline x="82.5" y="105" angle="0"/>
  <outline>
    <contour>
      <point x="60.5" y="-143" type="line"/>
      <point x="126" y="91.5" type="line"/>
      <point x="36" y="105" type="line"/>
      <point x="16" y="-137" type="line"/>
    </contour>
  </outline>
</glyph>
<glyph name="hyphen" format="2">
  <advance width="250"/>
  <unicode hex="002D"/>
  <guideline x="225" y="328" angle="0"/>
  <outline>
    <contour>
      <point x="20" y="227.5" type="line"/>
      <point x="230" y="227.5" type="line"/>
      <point x="230" y="312.5" type="line"/>
      <point x="20" y="312.5" type="line"/>
    </contour>
  </outline>
</glyph>
<glyph name="period" format="2">
  <advance width="154"/>
  <unicode hex="002E"/>
  <outline>
    <contour>
      <point x="77" y="-16" type="curve" smooth="yes"/>
      <point x="110.5" y="-16"/>
      <point x="138" y="11.5"/>
      <point x="138" y="45" type="curve" smooth="yes"/>
      <point x="138" y="78.5"/>
      <point x="110.5" y="106"/>
      <point x="77" y="106" type="curve" smooth="yes"/>
      <point x="43.5" y="106"/>
      <point x="16" y="78.5"/>
      <point x="16" y="45" type="curve" smooth="yes"/>
      <point x="16" y="11.5"/>
      <point x="43.5" y="-16"/>
    </contour>
  </outline>
</glyph>
<glyph name="slash" format="2">
  <advance width="240"/>
  <unicode hex="002F"/>
  <outline>
    <contour>
      <point x="26" y="-50" type="line"/>
      <point x="120.5" y="-50" type="line"/>
      <point x="214" y="700" type="line"/>
      <point x="119.5" y="700" type="line"/>
    </contour>
  </outline>
</glyph>
<glyph name="zero" format="2">
  <advance width="406"/>
  <unicode hex="0030"/>
  <guideline x="203" y="710" angle="0"/>
  <guideline x="203" y="-10" angle="0"/>
  <outline>
    <contour>
      <point x="203" y="90" type="curve"/>
      <point x="203" y="-10" type="line"/>
      <point x="296" y="-10"/>
      <point x="380" y="76.5"/>
      <point x="380" y="350" type="curve" smooth="yes"/>
      <point x="380" y="623.5"/>
      <point x="296" y="710"/>
      <point x="203" y="710" type="curve"/>
      <point x="203" y="610" type="line"/>
      <point x="236.5" y="610"/>
      <point x="272" y="558"/>
      <point x="272" y="350" type="curve" smooth="yes"/>
      <point x="272" y="142"/>
      <point x="231.5" y="90"/>
    </contour>
    <contour>
      <point x="203" y="-10" type="curve"/>
      <point x="203" y="90" type="line"/>
      <point x="174.5" y="90"/>
      <point x="134" y="142"/>
      <point x="134" y="350" type="curve" smooth="yes"/>
      <point x="134" y="558"/>
      <point x="169.5" y="610"/>
      <point x="203" y="610" type="curve"/>
      <point x="203" y="710" type="line"/>
      <point x="110" y="710"/>
      <point x="26" y="623.5"/>
      <point x="26" y="350" type="curve" smooth="yes"/>
      <point x="26" y="76.5"/>
      <point x="110" y="-10"/>
    </contour>
  </outline>
</glyph>
<glyph name="one" format="2">
  <advance width="290"/>
  <unicode hex="0031"/>
  <outline>
    <contour>
      <point x="149" y="0" type="line"/>
      <point x="254" y="0" type="line"/>
      <point x="254" y="700" type="line"/>
      <point x="164" y="700" type="line"/>
      <point x="6" y="537.5" type="line"/>
      <point x="76" y="462" type="line"/>
      <point x="207.5" y="642.5" type="line"/>
      <point x="149" y="643" type="line"/>
    </contour>
  </outline>
</glyph>
<glyph name="two" format="2">
  <advance width="358"/>
  <unicode hex="0032"/>
  <guideline x="205" y="710" angle="0"/>
  <guideline x="26" y="638" angle="90"/>
  <guideline x="332" y="543.5" angle="90"/>
  <outline>
    <contour>
      <point x="39.5" y="58.5" type="curve" smooth="yes"/>
      <point x="39.5" y="0" type="line"/>
      <point x="149.5" y="0" type="line"/>
      <point x="149.5" y="58.5" type="line" smooth="yes"/>
      <point x="149.5" y="254"/>
      <point x="332" y="363.5"/>
      <point x="332" y="543.5" type="curve" smooth="yes"/>
      <point x="332" y="652"/>
      <point x="265" y="710"/>
      <point x="184" y="710" type="curve" smooth="yes"/>
      <point x="132.5" y="710"/>
      <point x="75.5" y="687"/>
      <point x="26" y="638" type="curve"/>
      <point x="74.5" y="555.5" type="line"/>
      <point x="102" y="589"/>
      <point x="137" y="610"/>
      <point x="170" y="610" type="curve" smooth="yes"/>
      <point x="202" y="610"/>
      <point x="226" y="590"/>
      <point x="226" y="540.5" type="curve" smooth="yes"/>
      <point x="226" y="402.5"/>
      <point x="39.5" y="270"/>
    </contour>
    <contour>
      <point x="103" y="0" type="line"/>
      <point x="332" y="0" type="line"/>
      <point x="332" y="90" type="line"/>
      <point x="103" y="90" type="line"/>
    </contour>
  </outline>
</glyph>
<glyph name="three" format="2">
  <advance width="398"/>
  <unicode hex="0033"/>
  <guideline x="422.5" y="-10" angle="0"/>
  <guideline x="388.5" y="700" angle="90"/>
  <guideline x="181" y="90" angle="0"/>
  <guideline x="77.5" y="493.5" angle="90"/>
  <guideline x="190.5" y="401" angle="180"/>
  <outline>
    <contour>
      <point x="182.5" y="-10" type="curve" smooth="yes"/>
      <point x="311.5" y="-10"/>
      <point x="372" y="133"/>
      <point x="372" y="267.5" type="curve" smooth="yes"/>
      <point x="372" y="386.5"/>
      <point x="324" y="500"/>
      <point x="240" y="500" type="curve" smooth="yes"/>
      <point x="190" y="500"/>
      <point x="134.5" y="457"/>
      <point x="84" y="388.5" type="curve"/>
      <point x="128.5" y="352" type="line"/>
      <point x="156.5" y="386.5"/>
      <point x="180.5" y="401"/>
      <point x="200.5" y="401" type="curve" smooth="yes"/>
      <point x="242.5" y="401"/>
      <point x="266.5" y="330.5"/>
      <point x="266.5" y="256.5" type="curve" smooth="yes"/>
      <point x="266.5" y="175"/>
      <point x="238" y="90"/>
      <point x="182.5" y="90" type="curve" smooth="yes"/>
      <point x="142" y="90"/>
      <point x="105.5" y="135"/>
      <point x="97" y="198.5" type="curve"/>
      <point x="16" y="140" type="line"/>
      <point x="37" y="42.5"/>
      <point x="104.5" y="-10"/>
    </contour>
    <contour>
      <point x="128.5" y="352" type="line"/>
      <point x="358.5" y="700" type="line"/>
      <point x="257.5" y="700" type="line"/>
      <point x="77.5" y="393.5" type="line"/>
    </contour>
    <contour>
      <point x="42.5" y="610" type="line"/>
      <point x="278.5" y="610" type="line"/>
      <point x="278.5" y="700" type="line"/>
      <point x="42.5" y="700" type="line"/>
    </contour>
  </outline>
</glyph>
<glyph name="four" format="2">
  <advance width="402"/>
  <unicode hex="0034"/>
  <guideline x="193" y="128" angle="0"/>
  <outline>
    <contour>
      <point x="228.5" y="0" type="line"/>
      <point x="328.5" y="0" type="line"/>
      <point x="328.5" y="700" type="line"/>
      <point x="170" y="700" type="line"/>
      <point x="20" y="200" type="line"/>
      <point x="20" y="128" type="line"/>
      <point x="102" y="128" type="line"/>
      <point x="240.5" y="668" type="line"/>
      <point x="228.5" y="668" type="line"/>
    </contour>
    <contour>
      <point x="57.5" y="128" type="line"/>
      <point x="382" y="128" type="line"/>
      <point x="382" y="218" type="line"/>
      <point x="114.5" y="218" type="line"/>
    </contour>
  </outline>
</glyph>
<glyph name="five" format="2">
  <advance width="408"/>
  <unicode hex="0035"/>
  <guideline x="250" y="-10" angle="0"/>
  <guideline x="200.5" y="401" angle="180"/>
  <outline>
    <contour>
      <point x="127.5" y="332" type="line"/>
      <point x="135" y="380" type="line"/>
      <point x="135" y="700" type="line"/>
      <point x="35" y="700" type="line"/>
      <point x="35" y="390" type="line"/>
    </contour>
    <contour>
      <point x="41.5" y="610" type="line"/>
      <point x="352" y="610" type="line"/>
      <point x="352" y="700" type="line"/>
      <point x="41.5" y="700" type="line"/>
    </contour>
    <contour>
      <point x="192.5" y="-10" type="curve" smooth="yes"/>
      <point x="321.5" y="-10"/>
      <point x="382" y="133"/>
      <point x="382" y="267.5" type="curve" smooth="yes"/>
      <point x="382" y="415.5"/>
      <point x="305.5" y="500"/>
      <point x="225" y="500" type="curve" smooth="yes"/>
      <point x="167.5" y="500"/>
      <point x="109" y="457"/>
      <point x="74.5" y="365.5" type="curve"/>
      <point x="127.5" y="332" type="line"/>
      <point x="141" y="376.5"/>
      <point x="169.5" y="401"/>
      <point x="197" y="401" type="curve" smooth="yes"/>
      <point x="237" y="401"/>
      <point x="276.5" y="352.5"/>
      <point x="276.5" y="256.5" type="curve" smooth="yes"/>
      <point x="276.5" y="175"/>
      <point x="248" y="90"/>
      <point x="192.5" y="90" type="curve" smooth="yes"/>
      <point x="152" y="90"/>
      <point x="115.5" y="135"/>
      <point x="107" y="198.5" type="curve"/>
      <point x="26" y="140" type="line"/>
      <point x="47" y="42.5"/>
      <point x="114.5" y="-10"/>
    </contour>
  </outline>
</glyph>
<glyph name="six" format="2">
  <advance width="421.5"/>
  <unicode hex="0036"/>
  <outline>
    <contour>
      <point x="216" y="-10" type="curve"/>
      <point x="216" y="90" type="line"/>
      <point x="174.5" y="90"/>
      <point x="136" y="142"/>
      <point x="136" y="350" type="curve" smooth="yes"/>
      <point x="136" y="558"/>
      <point x="174.5" y="610"/>
      <point x="216" y="610" type="curve"/>
      <point x="216" y="710" type="line"/>
      <point x="110" y="710"/>
      <point x="26" y="623.5"/>
      <point x="26" y="350" type="curve" smooth="yes"/>
      <point x="26" y="76.5"/>
      <point x="110" y="-10"/>
    </contour>
    <contour>
      <point x="278" y="499.5" type="curve"/>
      <point x="385.5" y="527.5" type="line"/>
      <point x="356.5" y="662.5"/>
      <point x="290" y="710"/>
      <point x="216" y="710" type="curve"/>
      <point x="216" y="610" type="line"/>
      <point x="245" y="610"/>
      <point x="266" y="586"/>
    </contour>
    <contour>
      <point x="216" y="90" type="curve"/>
      <point x="216" y="-10" type="line"/>
      <point x="340" y="-10"/>
      <point x="395.5" y="106.5"/>
      <point x="395.5" y="224.5" type="curve" smooth="yes"/>
      <point x="395.5" y="464"/>
      <point x="166.5" y="525.5"/>
      <point x="93" y="297.5" type="curve"/>
      <point x="136" y="274" type="line"/>
      <point x="179" y="395"/>
      <point x="290" y="366"/>
      <point x="290" y="213.5" type="curve" smooth="yes"/>
      <point x="290" y="145"/>
      <point x="258.5" y="90"/>
    </contour>
  </outline>
</glyph>
<glyph name="seven" format="2">
  <advance width="333"/>
  <unicode hex="0037"/>
  <outline>
    <contour>
      <point x="58" y="0" type="line"/>
      <point x="178" y="0" type="line"/>
      <point x="317" y="700" type="line"/>
      <point x="217" y="700" type="line"/>
    </contour>
    <contour>
      <point x="16" y="610" type="line"/>
      <point x="237" y="610" type="line"/>
      <point x="237" y="700" type="line"/>
      <point x="16" y="700" type="line"/>
    </contour>
  </outline>
</glyph>
<glyph name="eight" format="2">
  <advance width="430"/>
  <unicode hex="0038"/>
  <guideline x="202.5" y="710" angle="0"/>
  <outline>
    <contour>
      <point x="215" y="-10" type="curve" smooth="yes"/>
      <point x="327.5" y="-10"/>
      <point x="404" y="76"/>
      <point x="404" y="222" type="curve" smooth="yes"/>
      <point x="404" y="383"/>
      <point x="312.5" y="444"/>
      <point x="215" y="444" type="curve" smooth="yes"/>
      <point x="117.5" y="444"/>
      <point x="26" y="383"/>
      <point x="26" y="222" type="curve" smooth="yes"/>
      <point x="26" y="76"/>
      <point x="102.5" y="-10"/>
    </contour>
    <contour>
      <point x="215" y="90" type="curve" smooth="yes"/>
      <point x="165" y="90"/>
      <point x="131.5" y="135.5"/>
      <point x="131.5" y="222" type="curve" smooth="yes"/>
      <point x="131.5" y="308.5"/>
      <point x="165" y="359"/>
      <point x="215" y="359" type="curve" smooth="yes"/>
      <point x="265" y="359"/>
      <point x="298.5" y="308.5"/>
      <point x="298.5" y="222" type="curve" smooth="yes"/>
      <point x="298.5" y="135.5"/>
      <point x="265" y="90"/>
    </contour>
    <contour>
      <point x="215" y="463.5" type="curve" smooth="yes"/>
      <point x="170" y="463.5"/>
      <point x="147.5" y="506.5"/>
      <point x="147.5" y="548" type="curve" smooth="yes"/>
      <point x="147.5" y="589.5"/>
      <point x="170" y="625"/>
      <point x="215" y="625" type="curve" smooth="yes"/>
      <point x="260" y="625"/>
      <point x="282.5" y="589.5"/>
      <point x="282.5" y="548" type="curve" smooth="yes"/>
      <point x="282.5" y="506.5"/>
      <point x="260" y="463.5"/>
    </contour>
    <contour>
      <point x="144.5" y="416.5" type="curve"/>
      <point x="287.5" y="416.5" type="line"/>
      <point x="342" y="430.5"/>
      <point x="380.5" y="486.5"/>
      <point x="380.5" y="553" type="curve" smooth="yes"/>
      <point x="380.5" y="631"/>
      <point x="327" y="710"/>
      <point x="215" y="710" type="curve" smooth="yes"/>
      <point x="103" y="710"/>
      <point x="49.5" y="631.5"/>
      <point x="49.5" y="554" type="curve" smooth="yes"/>
      <point x="49.5" y="487"/>
      <point x="88.5" y="430.5"/>
    </contour>
  </outline>
</glyph>
<glyph name="nine" format="2">
  <advance width="421.5"/>
  <unicode hex="0039"/>
  <guideline x="34" y="303.5" angle="90"/>
  <guideline x="402" y="348.5" angle="90"/>
  <guideline x="-60" y="708" angle="0"/>
  <guideline x="208" y="603.5" angle="90"/>
  <outline>
    <contour>
      <point x="205.5" y="90" type="curve"/>
      <point x="205.5" y="-10" type="line"/>
      <point x="311.5" y="-10"/>
      <point x="395.5" y="76.5"/>
      <point x="395.5" y="350" type="curve" smooth="yes"/>
      <point x="395.5" y="623.5"/>
      <point x="311.5" y="710"/>
      <point x="205.5" y="710" type="curve"/>
      <point x="205.5" y="610" type="line"/>
      <point x="247" y="610"/>
      <point x="285.5" y="558"/>
      <point x="285.5" y="350" type="curve" smooth="yes"/>
      <point x="285.5" y="142"/>
      <point x="247" y="90"/>
    </contour>
    <contour>
      <point x="205.5" y="-10" type="curve"/>
      <point x="205.5" y="90" type="line"/>
      <point x="178" y="90"/>
      <point x="155" y="113"/>
      <point x="143.5" y="202.5" type="curve"/>
      <point x="31.5" y="192.5" type="line"/>
      <point x="57.5" y="42"/>
      <point x="123.5" y="-10"/>
    </contour>
    <contour>
      <point x="205.5" y="610" type="curve"/>
      <point x="205.5" y="710" type="line"/>
      <point x="81.5" y="710"/>
      <point x="26" y="593.5"/>
      <point x="26" y="475.5" type="curve" smooth="yes"/>
      <point x="26" y="236"/>
      <point x="255" y="174.5"/>
      <point x="328.5" y="402.5" type="curve"/>
      <point x="285.5" y="426" type="line"/>
      <point x="242.5" y="305"/>
      <point x="131.5" y="334"/>
      <point x="131.5" y="486.5" type="curve" smooth="yes"/>
      <point x="131.5" y="555"/>
      <point x="163" y="610"/>
    </contour>
  </outline>
</glyph>
<glyph name="less" format="2">
  <advance width="299"/>
  <unicode hex="003C"/>
  <outline>
    <contour>
      <point x="16" y="289" type="line"/>
      <point x="126.5" y="289" type="line"/>
      <point x="273" y="408" type="line"/>
      <point x="213.5" y="491" type="line"/>
    </contour>
    <contour>
      <point x="213.5" y="87" type="line"/>
      <point x="273" y="170" type="line"/>
      <point x="126.5" y="289" type="line"/>
      <point x="16" y="289" type="line"/>
    </contour>
  </outline>
</glyph>
<glyph name="equal" format="2">
  <advance width="320"/>
  <unicode hex="003D"/>
  <outline>
    <contour>
      <point x="20" y="323.5" type="line"/>
      <point x="300" y="323.5" type="line"/>
      <point x="300" y="408.5" type="line"/>
      <point x="20" y="408.5" type="line"/>
    </contour>
    <contour>
      <point x="20" y="161.5" type="line"/>
      <point x="300" y="161.5" type="line"/>
      <point x="300" y="246.5" type="line"/>
      <point x="20" y="246.5" type="line"/>
    </contour>
  </outline>
</glyph>
<glyph name="greater" format="2">
  <advance width="299"/>
  <unicode hex="003E"/>
  <outline>
    <contour>
      <point x="283" y="289" type="line"/>
      <point x="85.5" y="491" type="line"/>
      <point x="26" y="408" type="line"/>
      <point x="172.5" y="289" type="line"/>
    </contour>
    <contour>
      <point x="85.5" y="87" type="line"/>
      <point x="283" y="289" type="line"/>
      <point x="172.5" y="289" type="line"/>
      <point x="26" y="170" type="line"/>
    </contour>
  </outline>
</glyph>
<glyph name="question" format="2">
  <advance width="354"/>
  <unicode hex="003F"/>
  <guideline x="245.5" y="710" angle="0"/>
  <guideline x="240" y="140.5" angle="0"/>
  <outline>
    <contour>
      <point x="107" y="140.5" type="curve"/>
      <point x="198" y="140.5" type="line"/>
      <point x="178" y="336"/>
      <point x="328" y="395"/>
      <point x="328" y="543.5" type="curve" smooth="yes"/>
      <point x="328" y="653"/>
      <point x="255" y="710"/>
      <point x="169.5" y="710" type="curve" smooth="yes"/>
      <point x="115" y="710"/>
      <point x="65" y="686.5"/>
      <point x="16" y="638" type="curve"/>
      <point x="63" y="558.5" type="line"/>
      <point x="93" y="592"/>
      <point x="129.5" y="611.5"/>
      <point x="160" y="611.5" type="curve" smooth="yes"/>
      <point x="192" y="611.5"/>
      <point x="222" y="590"/>
      <point x="222" y="540.5" type="curve" smooth="yes"/>
      <point x="222" y="440.5"/>
      <point x="87" y="352"/>
    </contour>
    <component base="period" xOffset="78" identifier="51A6D2C1"/>
  </outline>
</glyph>
<glyph name="A" format="2">
  <advance width="388"/>
  <unicode hex="0041"/>
  <guideline x="193" y="128" angle="0"/>
  <guideline x="304" y="615" angle="0"/>
  <anchor x="195" y="0" name="bottom"/>
  <anchor x="374" y="0" name="ogonek"/>
  <anchor x="195" y="700" name="top"/>
  <outline>
    <contour>
      <point x="70.5" y="128" type="line"/>
      <point x="315" y="128" type="line"/>
      <point x="315" y="218" type="line"/>
      <point x="70.5" y="218" type="line"/>
    </contour>
    <component base="V" xScale="-1" yScale="-1" xOffset="388" yOffset="700" identifier="67F78D76"/>
  </outline>
</glyph>
<glyph name="B" format="2">
  <advance width="389"/>
  <unicode hex="0042"/>
  <guideline x="192"/>
  <anchor x="163" y="0" name="bottom"/>
  <anchor x="166" y="700" name="top"/>
  <outline>
    <contour>
      <point x="118" y="0" type="line"/>
      <point x="192" y="0" type="line" smooth="yes"/>
      <point x="277.5" y="0"/>
      <point x="363" y="79"/>
      <point x="363" y="223" type="curve" smooth="yes"/>
      <point x="363" y="377.5"/>
      <point x="264" y="406"/>
      <point x="138" y="406" type="curve"/>
      <point x="138" y="357" type="line"/>
      <point x="160" y="357" type="line" smooth="yes"/>
      <point x="227" y="357"/>
      <point x="261" y="322.5"/>
      <point x="261" y="233.5" type="curve" smooth="yes"/>
      <point x="261" y="154.5"/>
      <point x="232.5" y="100"/>
      <point x="175" y="100" type="curve" smooth="yes"/>
      <point x="118" y="100" type="line"/>
    </contour>
    <contour>
      <point x="36" y="0" type="line"/>
      <point x="141" y="0" type="line"/>
      <point x="141" y="700" type="line"/>
      <point x="36" y="700" type="line"/>
    </contour>
    <contour>
      <point x="138" y="427" type="curve"/>
      <point x="138" y="373" type="line"/>
      <point x="256.5" y="373"/>
      <point x="339" y="455"/>
      <point x="339" y="553.5" type="curve" smooth="yes"/>
      <point x="339" y="641.5"/>
      <point x="278" y="700"/>
      <point x="192" y="700" type="curve" smooth="yes"/>
      <point x="118" y="700" type="line"/>
      <point x="118" y="620" type="line"/>
      <point x="175" y="620" type="line" smooth="yes"/>
      <point x="215" y="620"/>
      <point x="237" y="589.5"/>
      <point x="237" y="543.5" type="curve" smooth="yes"/>
      <point x="237" y="481.5"/>
      <point x="194" y="427"/>
    </contour>
  </outline>
</glyph>
<glyph name="C" format="2">
  <advance width="417"/>
  <unicode hex="0043"/>
  <guideline x="402" y="242" angle="0"/>
  <anchor x="226" y="-8" name="bottom"/>
  <anchor x="226" y="708" name="top"/>
  <outline>
    <contour>
      <point x="216" y="-10" type="curve"/>
      <point x="216" y="90" type="line"/>
      <point x="174.5" y="90"/>
      <point x="136" y="142"/>
      <point x="136" y="350" type="curve" smooth="yes"/>
      <point x="136" y="558"/>
      <point x="174.5" y="610"/>
      <point x="216" y="610" type="curve"/>
      <point x="216" y="710" type="line"/>
      <point x="110" y="710"/>
      <point x="26" y="623.5"/>
      <point x="26" y="350" type="curve" smooth="yes"/>
      <point x="26" y="76.5"/>
      <point x="110" y="-10"/>
    </contour>
    <contour>
      <point x="216" y="90" type="curve"/>
      <point x="216" y="-10" type="line"/>
      <point x="306.5" y="-10"/>
      <point x="377.5" y="53"/>
      <point x="397" y="242" type="curve"/>
      <point x="283" y="252" type="line"/>
      <point x="274" y="121"/>
      <point x="248" y="90"/>
    </contour>
    <contour>
      <point x="282" y="465.5" type="curve"/>
      <point x="392.5" y="490.5" type="line"/>
      <point x="368" y="654"/>
      <point x="296" y="710"/>
      <point x="216" y="710" type="curve"/>
      <point x="216" y="610" type="line"/>
      <point x="248.5" y="610"/>
      <point x="271.5" y="580"/>
    </contour>
  </outline>
</glyph>
<glyph name="D" format="2">
  <advance width="389"/>
  <unicode hex="0044"/>
  <outline>
    <contour>
      <point x="118" y="1" type="line"/>
      <point x="192" y="1" type="line" smooth="yes"/>
      <point x="272.5" y="1"/>
      <point x="363" y="114"/>
      <point x="363" y="361" type="curve"/>
      <point x="261" y="350.5" type="line"/>
      <point x="261" y="200.5"/>
      <point x="227.5" y="101"/>
      <point x="175" y="101" type="curve" smooth="yes"/>
      <point x="118" y="101" type="line"/>
    </contour>
    <contour>
      <point x="36" y="0" type="line"/>
      <point x="141" y="0" type="line"/>
      <point x="141" y="700" type="line"/>
      <point x="36" y="700" type="line"/>
    </contour>
    <contour>
      <point x="261" y="350.5" type="curve"/>
      <point x="363" y="361" type="line"/>
      <point x="363" y="606.5"/>
      <point x="277.5" y="700"/>
      <point x="192" y="700" type="curve" smooth="yes"/>
      <point x="118" y="700" type="line"/>
      <point x="118" y="600" type="line"/>
      <point x="175" y="600" type="line" smooth="yes"/>
      <point x="232.5" y="600"/>
      <point x="261" y="499.5"/>
    </contour>
  </outline>
</glyph>
<glyph name="E" format="2">
  <advance width="305"/>
  <unicode hex="0045"/>
  <anchor x="151" y="0" name="bottom"/>
  <anchor x="285" y="0" name="ogonek"/>
  <anchor x="151" y="700" name="top"/>
  <anchor x="21" y="700" name="topleft"/>
  <outline>
    <contour>
      <point x="36" y="0" type="line"/>
      <point x="141" y="0" type="line"/>
      <point x="141" y="700" type="line"/>
      <point x="36" y="700" type="line"/>
    </contour>
    <contour>
      <point x="91" y="0" type="line"/>
      <point x="285" y="0" type="line"/>
      <point x="285" y="90" type="line"/>
      <point x="91" y="90" type="line"/>
    </contour>
    <contour>
      <point x="91" y="328" type="line"/>
      <point x="260" y="328" type="line"/>
      <point x="260" y="418" type="line"/>
      <point x="91" y="418" type="line"/>
    </contour>
    <contour>
      <point x="91" y="610" type="line"/>
      <point x="285" y="610" type="line"/>
      <point x="285" y="700" type="line"/>
      <point x="91" y="700" type="line"/>
    </contour>
  </outline>
</glyph>
<glyph name="F" format="2">
  <advance width="292"/>
  <unicode hex="0046"/>
  <outline>
    <contour>
      <point x="36" y="0" type="line"/>
      <point x="141" y="0" type="line"/>
      <point x="141" y="700" type="line"/>
      <point x="36" y="700" type="line"/>
    </contour>
    <contour>
      <point x="91" y="303" type="line"/>
      <point x="251" y="303" type="line"/>
      <point x="251" y="393" type="line"/>
      <point x="91" y="393" type="line"/>
    </contour>
    <contour>
      <point x="91" y="610" type="line"/>
      <point x="276" y="610" type="line"/>
      <point x="276" y="700" type="line"/>
      <point x="91" y="700" type="line"/>
    </contour>
  </outline>
</glyph>
<glyph name="G" format="2">
  <advance width="404"/>
  <unicode hex="0047"/>
  <guideline x="221" y="608" angle="90"/>
  <anchor x="206" y="-10" name="bottom"/>
  <anchor x="211" y="710" name="top"/>
  <outline>
    <contour>
      <point x="206" y="-10" type="curve" smooth="yes"/>
      <point x="293.5" y="-10"/>
      <point x="373" y="48.5"/>
      <point x="373" y="325.5" type="curve"/>
      <point x="284" y="336.5" type="line"/>
      <point x="284" y="139.5"/>
      <point x="251.5" y="90"/>
      <point x="211" y="90" type="curve" smooth="yes"/>
      <point x="169.5" y="90"/>
      <point x="136" y="142"/>
      <point x="136" y="350" type="curve" smooth="yes"/>
      <point x="136" y="558"/>
      <point x="169.5" y="610"/>
      <point x="211" y="610" type="curve"/>
      <point x="211" y="710" type="line"/>
      <point x="105" y="710"/>
      <point x="26" y="623.5"/>
      <point x="26" y="350" type="curve" smooth="yes"/>
      <point x="26" y="76.5"/>
      <point x="100" y="-10"/>
    </contour>
    <contour>
      <point x="201.5" y="285" type="line"/>
      <point x="333.5" y="285" type="line"/>
      <point x="373" y="325.5" type="line"/>
      <point x="373" y="375" type="line"/>
      <point x="201.5" y="375" type="line"/>
    </contour>
    <contour>
      <point x="268" y="465.5" type="curve"/>
      <point x="378" y="490.5" type="line"/>
      <point x="353.5" y="654"/>
      <point x="296" y="710"/>
      <point x="211" y="710" type="curve"/>
      <point x="211" y="610" type="line"/>
      <point x="243.5" y="610"/>
      <point x="257" y="580"/>
    </contour>
  </outline>
</glyph>
<glyph name="H" format="2">
  <advance width="412"/>
  <unicode hex="0048"/>
  <outline>
    <contour>
      <point x="271" y="0" type="line"/>
      <point x="376" y="0" type="line"/>
      <point x="376" y="700" type="line"/>
      <point x="271" y="700" type="line"/>
    </contour>
    <contour>
      <point x="36" y="0" type="line"/>
      <point x="141" y="0" type="line"/>
      <point x="141" y="700" type="line"/>
      <point x="36" y="700" type="line"/>
    </contour>
    <contour>
      <point x="101" y="348" type="line"/>
      <point x="311" y="348" type="line"/>
      <point x="311" y="438" type="line"/>
      <point x="101" y="438" type="line"/>
    </contour>
  </outline>
</glyph>
<glyph name="I" format="2">
  <advance width="185"/>
  <unicode hex="0049"/>
  <anchor x="93" y="0" name="bottom"/>
  <anchor x="145" y="0" name="ogonek"/>
  <anchor x="93" y="700" name="top"/>
  <anchor x="25" y="700" name="topleft"/>
  <outline>
    <contour>
      <point x="40" y="0" type="line"/>
      <point x="145" y="0" type="line"/>
      <point x="145" y="700" type="line"/>
      <point x="40" y="700" type="line"/>
    </contour>
  </outline>
</glyph>
<glyph name="J" format="2">
  <advance width="336"/>
  <unicode hex="004A"/>
  <guideline x="398" y="242" angle="0"/>
  <anchor x="168" y="0" name="bottom"/>
  <anchor x="247.5" y="700" name="top"/>
  <outline>
    <contour>
      <point x="160" y="-5" type="curve" smooth="yes"/>
      <point x="230.5" y="-5"/>
      <point x="300" y="39"/>
      <point x="300" y="190" type="curve" smooth="yes"/>
      <point x="300" y="700" type="line"/>
      <point x="195" y="700" type="line"/>
      <point x="195" y="200" type="line" smooth="yes"/>
      <point x="195" y="119.5"/>
      <point x="185.5" y="90"/>
      <point x="156" y="90" type="curve" smooth="yes"/>
      <point x="126.5" y="90"/>
      <point x="116" y="119.5"/>
      <point x="116" y="200" type="curve"/>
      <point x="116" y="252" type="line"/>
      <point x="16" y="242" type="line"/>
      <point x="16" y="200" type="line"/>
      <point x="16" y="36"/>
      <point x="92.5" y="-5"/>
    </contour>
  </outline>
</glyph>
<glyph name="K" format="2">
  <advance width="396"/>
  <unicode hex="004B"/>
  <anchor x="204" y="0" name="bottom"/>
  <anchor x="204" y="700" name="top"/>
  <outline>
    <contour>
      <point x="66.5" y="246.5" type="line"/>
      <point x="132.5" y="246.5" type="line"/>
      <point x="375" y="700" type="line"/>
      <point x="265" y="700" type="line"/>
    </contour>
    <contour>
      <point x="36" y="0" type="line"/>
      <point x="141" y="0" type="line"/>
      <point x="141" y="700" type="line"/>
      <point x="36" y="700" type="line"/>
    </contour>
    <contour>
      <point x="271" y="0" type="line"/>
      <point x="386" y="0" type="line"/>
      <point x="244" y="459" type="line"/>
      <point x="168" y="459" type="line"/>
    </contour>
  </outline>
</glyph>
<glyph name="L" format="2">
  <advance width="292"/>
  <unicode hex="004C"/>
  <anchor x="161" y="0" name="bottom"/>
  <anchor x="146" y="350" name="center"/>
  <anchor x="88.5" y="700" name="top"/>
  <anchor x="272" y="700" name="topright"/>
  <outline>
    <contour>
      <point x="36" y="0" type="line"/>
      <point x="141" y="0" type="line"/>
      <point x="141" y="700" type="line"/>
      <point x="36" y="700" type="line"/>
    </contour>
    <contour>
      <point x="91" y="0" type="line"/>
      <point x="276" y="0" type="line"/>
      <point x="276" y="90" type="line"/>
      <point x="91" y="90" type="line"/>
    </contour>
  </outline>
</glyph>
<glyph name="M" format="2">
  <advance width="591.5"/>
  <unicode hex="004D"/>
  <guideline x="86.5" y="700" angle="90"/>
  <outline>
    <contour>
      <point x="232.5" y="0" type="line"/>
      <point x="362.5" y="0" type="line"/>
      <point x="464" y="700" type="line"/>
      <point x="389" y="700" type="line"/>
      <point x="289" y="10" type="line"/>
      <point x="307" y="10" type="line"/>
      <point x="212.5" y="700" type="line"/>
      <point x="127.5" y="700" type="line"/>
    </contour>
    <contour>
      <point x="36" y="0" type="line"/>
      <point x="141" y="0" type="line"/>
      <point x="141" y="700" type="line"/>
      <point x="36" y="700" type="line"/>
    </contour>
    <contour>
      <point x="450.5" y="0" type="line"/>
      <point x="555.5" y="0" type="line"/>
      <point x="555.5" y="700" type="line"/>
      <point x="450.5" y="700" type="line"/>
    </contour>
  </outline>
</glyph>
<glyph name="N" format="2">
  <advance width="440"/>
  <unicode hex="004E"/>
  <anchor x="218" y="0" name="bottom"/>
  <anchor x="218" y="700" name="top"/>
  <outline>
    <contour>
      <point x="234" y="0" type="line"/>
      <point x="324.5" y="0" type="line"/>
      <point x="204" y="700" type="line"/>
      <point x="113" y="700" type="line"/>
    </contour>
    <contour>
      <point x="36" y="0" type="line"/>
      <point x="126" y="0" type="line"/>
      <point x="126" y="700" type="line"/>
      <point x="36" y="700" type="line"/>
    </contour>
    <contour>
      <point x="314" y="0" type="line"/>
      <point x="404" y="0" type="line"/>
      <point x="404" y="700" type="line"/>
      <point x="314" y="700" type="line"/>
    </contour>
  </outline>
</glyph>
<glyph name="O" format="2">
  <advance width="422"/>
  <unicode hex="004F"/>
  <guideline x="211" y="-10" angle="0"/>
  <guideline x="211" y="710" angle="0"/>
  <anchor x="211" y="0" name="bottom"/>
  <anchor x="211" y="350" name="center"/>
  <anchor x="427" y="10" name="ogonek"/>
  <anchor x="211" y="700" name="top"/>
  <anchor x="-39" y="700" name="topleft"/>
  <anchor x="461" y="700" name="topright"/>
  <outline>
    <contour>
      <point x="211" y="90" type="curve"/>
      <point x="211" y="-10" type="line"/>
      <point x="317" y="-10"/>
      <point x="396" y="76.5"/>
      <point x="396" y="350" type="curve" smooth="yes"/>
      <point x="396" y="623.5"/>
      <point x="317" y="710"/>
      <point x="211" y="710" type="curve"/>
      <point x="211" y="610" type="line"/>
      <point x="252.5" y="610"/>
      <point x="286" y="558"/>
      <point x="286" y="350" type="curve" smooth="yes"/>
      <point x="286" y="142"/>
      <point x="252.5" y="90"/>
    </contour>
    <contour>
      <point x="211" y="-10" type="curve"/>
      <point x="211" y="90" type="line"/>
      <point x="169.5" y="90"/>
      <point x="136" y="142"/>
      <point x="136" y="350" type="curve" smooth="yes"/>
      <point x="136" y="558"/>
      <point x="169.5" y="610"/>
      <point x="211" y="610" type="curve"/>
      <point x="211" y="710" type="line"/>
      <point x="105" y="710"/>
      <point x="26" y="623.5"/>
      <point x="26" y="350" type="curve" smooth="yes"/>
      <point x="26" y="76.5"/>
      <point x="105" y="-10"/>
    </contour>
  </outline>
</glyph>
<glyph name="Q" format="2">
  <advance width="430"/>
  <unicode hex="0051"/>
  <outline>
    <contour>
      <point x="337.5" y="-78.5" type="line"/>
      <point x="420" y="-22" type="line"/>
      <point x="329.5" y="90.5" type="line"/>
      <point x="260.5" y="44.5" type="line"/>
    </contour>
    <component base="O" identifier="E6CA873F"/>
  </outline>
</glyph>
<glyph name="R" format="2">
  <advance width="393"/>
  <unicode hex="0052"/>
  <guideline x="363" y="457" angle="90"/>
  <anchor x="194" y="0" name="bottom"/>
  <anchor x="194" y="700" name="top"/>
  <outline>
    <contour>
      <point x="36" y="0" type="line"/>
      <point x="141" y="0" type="line"/>
      <point x="141" y="700" type="line"/>
      <point x="36" y="700" type="line"/>
    </contour>
    <contour>
      <point x="243" y="0" type="line"/>
      <point x="353" y="0" type="line"/>
      <point x="260.5" y="260" type="line"/>
      <point x="170.5" y="260" type="line"/>
    </contour>
    <contour>
      <point x="118" y="193" type="line"/>
      <point x="192" y="193" type="line" smooth="yes"/>
      <point x="277.5" y="193"/>
      <point x="363" y="271"/>
      <point x="363" y="457" type="curve"/>
      <point x="261" y="446.5" type="line"/>
      <point x="261" y="357.5"/>
      <point x="232.5" y="293"/>
      <point x="175" y="293" type="curve" smooth="yes"/>
      <point x="118" y="293" type="line"/>
    </contour>
    <contour>
      <point x="261" y="446.5" type="curve"/>
      <point x="363" y="457" type="line"/>
      <point x="363" y="642.5"/>
      <point x="277.5" y="700"/>
      <point x="192" y="700" type="curve" smooth="yes"/>
      <point x="118" y="700" type="line"/>
      <point x="118" y="600" type="line"/>
      <point x="175" y="600" type="line" smooth="yes"/>
      <point x="232.5" y="600"/>
      <point x="261" y="535.5"/>
    </contour>
  </outline>
</glyph>
<glyph name="S" format="2">
  <advance width="353"/>
  <unicode hex="0053"/>
  <guideline x="336" y="166" angle="90"/>
  <guideline x="378.5" y="500" angle="90"/>
  <guideline x="208" y="-10" angle="0"/>
  <guideline x="31" y="540" angle="90"/>
  <guideline x="210" y="710" angle="0"/>
  <guideline x="166.5" y="90" angle="0"/>
  <anchor x="170" y="0" name="bottom"/>
  <anchor x="192" y="700" name="top"/>
  <outline>
    <contour>
      <point x="170" y="-10" type="curve" smooth="yes"/>
      <point x="258" y="-10"/>
      <point x="336" y="61"/>
      <point x="336" y="166" type="curve" smooth="yes"/>
      <point x="336" y="242.5"/>
      <point x="294" y="290"/>
      <point x="225" y="383" type="curve" smooth="yes"/>
      <point x="206.5" y="408" type="line" smooth="yes"/>
      <point x="163" y="467"/>
      <point x="133.5" y="509"/>
      <point x="133.5" y="551.5" type="curve" smooth="yes"/>
      <point x="133.5" y="590.5"/>
      <point x="158" y="610"/>
      <point x="186.5" y="610" type="curve" smooth="yes"/>
      <point x="216" y="610"/>
      <point x="250" y="590"/>
      <point x="268.5" y="548.5" type="curve"/>
      <point x="337" y="615.5" type="line"/>
      <point x="298" y="676.5"/>
      <point x="246.5" y="710"/>
      <point x="192.5" y="710" type="curve" smooth="yes"/>
      <point x="97.5" y="710"/>
      <point x="31" y="640"/>
      <point x="31" y="542" type="curve" smooth="yes"/>
      <point x="31" y="471"/>
      <point x="67.5" y="417.5"/>
      <point x="132" y="330.5" type="curve" smooth="yes"/>
      <point x="150.5" y="305.5" type="line" smooth="yes"/>
      <point x="185.5" y="258"/>
      <point x="231" y="206.5"/>
      <point x="231" y="158" type="curve" smooth="yes"/>
      <point x="231" y="118"/>
      <point x="200" y="90"/>
      <point x="166.5" y="90" type="curve" smooth="yes"/>
      <point x="137" y="90"/>
      <point x="110.5" y="112"/>
      <point x="94" y="150.5" type="curve"/>
      <point x="16" y="96" type="line"/>
      <point x="54.5" y="19.5"/>
      <point x="113" y="-10"/>
    </contour>
  </outline>
</glyph>
<glyph name="U" format="2">
  <advance width="412"/>
  <unicode hex="0055"/>
  <guideline x="461" y="-10" angle="0"/>
  <anchor x="206" y="0" name="bottom"/>
  <anchor x="266" y="0" name="ogonek"/>
  <anchor x="206" y="700" name="top"/>
  <anchor x="391" y="700" name="topright"/>
  <outline>
    <contour>
      <point x="271" y="205" type="line"/>
      <point x="376" y="205" type="line"/>
      <point x="376" y="700" type="line"/>
      <point x="271" y="700" type="line"/>
    </contour>
    <contour>
      <point x="206" y="-10" type="curve"/>
      <point x="206" y="90" type="line"/>
      <point x="166" y="90"/>
      <point x="140.5" y="117"/>
      <point x="141" y="205" type="curve"/>
      <point x="36" y="205" type="line"/>
      <point x="36" y="70"/>
      <point x="99" y="-10"/>
    </contour>
    <contour>
      <point x="206" y="90" type="curve"/>
      <point x="206" y="-10" type="line"/>
      <point x="313" y="-10"/>
      <point x="376" y="70"/>
      <point x="376" y="205" type="curve"/>
      <point x="271" y="205" type="line"/>
      <point x="271.5" y="117"/>
      <point x="246" y="90"/>
    </contour>
    <contour>
      <point x="36" y="205" type="line"/>
      <point x="141" y="205" type="line"/>
      <point x="141" y="700" type="line"/>
      <point x="36" y="700" type="line"/>
    </contour>
  </outline>
</glyph>
<glyph name="V" format="2">
  <advance width="388"/>
  <unicode hex="0056"/>
  <guideline x="236" y="86" angle="0"/>
  <guideline x="203.5" y="10" angle="0"/>
  <anchor x="191" y="0" name="bottom"/>
  <anchor x="191" y="700" name="top"/>
  <outline>
    <contour>
      <point x="124" y="0" type="line"/>
      <point x="264" y="0" type="line"/>
      <point x="372" y="700" type="line"/>
      <point x="272" y="700" type="line"/>
      <point x="185.5" y="10" type="line"/>
      <point x="203.5" y="10" type="line"/>
      <point x="126" y="700" type="line"/>
      <point x="16" y="700" type="line"/>
    </contour>
  </outline>
</glyph>
<glyph name="W" format="2">
  <advance width="590"/>
  <unicode hex="0057"/>
  <guideline x="208.5" y="10" angle="0"/>
  <guideline x="241" y="86" angle="0"/>
  <anchor x="298" y="0" name="bottom"/>
  <anchor x="298" y="700" name="top"/>
  <outline>
    <contour>
      <point x="108" y="0" type="line"/>
      <point x="246" y="0" type="line"/>
      <point x="304.5" y="600" type="line"/>
      <point x="291.5" y="600" type="line"/>
      <point x="344" y="0" type="line"/>
      <point x="482" y="0" type="line"/>
      <point x="574" y="700" type="line"/>
      <point x="469" y="700" type="line"/>
      <point x="408" y="35.5" type="line"/>
      <point x="418.5" y="35" type="line"/>
      <point x="343.5" y="700" type="line"/>
      <point x="251.5" y="700" type="line"/>
      <point x="174" y="35.5" type="line"/>
      <point x="184.5" y="35.5" type="line"/>
      <point x="126" y="700" type="line"/>
      <point x="16" y="700" type="line"/>
    </contour>
  </outline>
</glyph>
<glyph name="X" format="2">
  <advance width="392"/>
  <unicode hex="0058"/>
  <outline>
    <contour>
      <point x="266" y="0" type="line"/>
      <point x="376" y="0" type="line"/>
      <point x="126" y="700" type="line"/>
      <point x="16" y="700" type="line"/>
    </contour>
    <contour>
      <point x="21" y="0" type="line"/>
      <point x="116" y="0" type="line"/>
      <point x="231" y="398" type="line"/>
      <point x="151" y="398" type="line"/>
    </contour>
    <contour>
      <point x="161" y="337" type="line"/>
      <point x="241" y="337" type="line"/>
      <point x="356" y="700" type="line"/>
      <point x="261" y="700" type="line"/>
    </contour>
  </outline>
</glyph>
<glyph name="Y" format="2">
  <advance width="370"/>
  <unicode hex="0059"/>
  <anchor x="185" y="0" name="bottom"/>
  <anchor x="185" y="700" name="top"/>
  <anchor x="22" y="700" name="topleft"/>
  <outline>
    <contour>
      <point x="136" y="177" type="line"/>
      <point x="232" y="177" type="line"/>
      <point x="354" y="700" type="line"/>
      <point x="254" y="700" type="line"/>
      <point x="179.5" y="270.5" type="line"/>
      <point x="195" y="270.5" type="line"/>
      <point x="126" y="700" type="line"/>
      <point x="16" y="700" type="line"/>
    </contour>
    <contour>
      <point x="134" y="0" type="line"/>
      <point x="234" y="0" type="line"/>
      <point x="234" y="192.5" type="line"/>
      <point x="134" y="192.5" type="line"/>
    </contour>
  </outline>
</glyph>
<glyph name="Z" format="2">
  <advance width="344"/>
  <unicode hex="005A"/>
  <guideline x="327" y="700" angle="90"/>
  <anchor x="172" y="0" name="bottom"/>
  <anchor x="172" y="350" name="center"/>
  <anchor x="172" y="700" name="top"/>
  <outline>
    <contour>
      <point x="16" y="0" type="line"/>
      <point x="128" y="0" type="line"/>
      <point x="328" y="700" type="line"/>
      <point x="216" y="700" type="line"/>
    </contour>
    <contour>
      <point x="71" y="0" type="line"/>
      <point x="321.5" y="0" type="line"/>
      <point x="321.5" y="90" type="line"/>
      <point x="71" y="90" type="line"/>
    </contour>
    <contour>
      <point x="21" y="610" type="line"/>
      <point x="257" y="610" type="line"/>
      <point x="257" y="700" type="line"/>
      <point x="21" y="700" type="line"/>
    </contour>
  </outline>
</glyph>
<glyph name="bracketleft" format="2">
  <advance width="236"/>
  <unicode hex="005B"/>
  <guideline x="206" y="-25" angle="0"/>
  <outline>
    <contour>
      <point x="36" y="-25" type="line"/>
      <point x="136" y="-25" type="line"/>
      <point x="136" y="725" type="line"/>
      <point x="36" y="725" type="line"/>
    </contour>
    <contour>
      <point x="36" y="-25" type="line"/>
      <point x="206" y="-25" type="line"/>
      <point x="206" y="55" type="line"/>
      <point x="36" y="55" type="line"/>
    </contour>
    <contour>
      <point x="36" y="645" type="line"/>
      <point x="206" y="645" type="line"/>
      <point x="206" y="725" type="line"/>
      <point x="36" y="725" type="line"/>
    </contour>
  </outline>
</glyph>
<glyph name="backslash" format="2">
  <advance width="240"/>
  <unicode hex="005C"/>
  <outline>
    <contour>
      <point x="214" y="-50" type="line"/>
      <point x="120.5" y="700" type="line"/>
      <point x="26" y="700" type="line"/>
      <point x="119.5" y="-50" type="line"/>
    </contour>
  </outline>
</glyph>
<glyph name="bracketright" format="2">
  <advance width="236"/>
  <unicode hex="005D"/>
  <outline>
    <contour>
      <point x="200" y="-25" type="line"/>
      <point x="200" y="725" type="line"/>
      <point x="100" y="725" type="line"/>
      <point x="100" y="-25" type="line"/>
    </contour>
    <contour>
      <point x="200" y="-25" type="line"/>
      <point x="200" y="55" type="line"/>
      <point x="30" y="55" type="line"/>
      <point x="30" y="-25" type="line"/>
    </contour>
    <contour>
      <point x="200" y="645" type="line"/>
      <point x="200" y="725" type="line"/>
      <point x="30" y="725" type="line"/>
      <point x="30" y="645" type="line"/>
    </contour>
  </outline>
</glyph>
<glyph name="asciicircum" format="2">
  <advance width="260"/>
  <unicode hex="005E"/>
  <outline>
    <contour>
      <point x="179" y="450" type="line"/>
      <point x="244" y="450" type="line"/>
      <point x="174" y="700" type="line"/>
      <point x="124" y="700" type="line"/>
    </contour>
    <contour>
      <point x="16" y="450" type="line"/>
      <point x="81" y="450" type="line"/>
      <point x="136" y="700" type="line"/>
      <point x="86" y="700" type="line"/>
    </contour>
  </outline>
</glyph>
<glyph name="underscore" format="2">
  <advance width="290"/>
  <unicode hex="005F"/>
  <outline>
    <contour>
      <point x="20" y="-90" type="line"/>
      <point x="270" y="-90" type="line"/>
      <point x="270" y="-5" type="line"/>
      <point x="20" y="-5" type="line"/>
    </contour>
  </outline>
</glyph>
<glyph name="a" format="2">
  <advance width="336"/>
  <unicode hex="0061"/>
  <guideline x="225.5" y="505" angle="0"/>
  <anchor x="165.5" y="0" name="bottom"/>
  <anchor x="300" y="0" name="ogonek"/>
  <anchor x="174" y="505" name="top"/>
  <outline>
    <contour>
      <point x="232" y="0" type="line"/>
      <point x="300" y="0" type="line"/>
      <point x="300" y="400" type="line" smooth="yes"/>
      <point x="300" y="482.5"/>
      <point x="248" y="505"/>
      <point x="184" y="505" type="curve" smooth="yes"/>
      <point x="143.5" y="505"/>
      <point x="90" y="496"/>
      <point x="42" y="478" type="curve"/>
      <point x="60" y="399.5" type="line"/>
      <point x="97.5" y="417.5"/>
      <point x="131.5" y="425"/>
      <point x="160" y="425" type="curve" smooth="yes"/>
      <point x="190.5" y="425"/>
      <point x="200" y="413"/>
      <point x="200" y="373.5" type="curve" smooth="yes"/>
      <point x="200" y="150" type="line"/>
    </contour>
    <contour>
      <point x="126.5" y="-5" type="curve" smooth="yes"/>
      <point x="191" y="-5"/>
      <point x="235" y="55.5"/>
      <point x="235" y="138" type="curve"/>
      <point x="200" y="150" type="line"/>
      <point x="200" y="107.5"/>
      <point x="178.5" y="80"/>
      <point x="153" y="80" type="curve" smooth="yes"/>
      <point x="127.5" y="80"/>
      <point x="110" y="107.5"/>
      <point x="110" y="148.5" type="curve" smooth="yes"/>
      <point x="110" y="194"/>
      <point x="131.5" y="267.5"/>
      <point x="259.5" y="267.5" type="curve"/>
      <point x="259.5" y="315.5" type="line"/>
      <point x="75" y="315.5"/>
      <point x="16" y="226.5"/>
      <point x="16" y="133" type="curve" smooth="yes"/>
      <point x="16" y="45.5"/>
      <point x="67.5" y="-5"/>
    </contour>
  </outline>
</glyph>
<glyph name="b" format="2">
  <advance width="363"/>
  <unicode hex="0062"/>
  <guideline x="174" y="505" angle="0"/>
  <outline>
    <contour>
      <point x="38" y="0" type="line"/>
      <point x="106" y="0" type="line"/>
      <point x="138" y="150" type="line"/>
      <point x="138" y="805" type="line"/>
      <point x="38" y="775" type="line"/>
    </contour>
    <component base="_part.bowl"/>
  </outline>
</glyph>
<glyph name="c" format="2">
  <advance width="334"/>
  <unicode hex="0063"/>
  <anchor x="179" y="0" name="bottom"/>
  <anchor x="179" y="505" name="top"/>
  <outline>
    <contour>
      <point x="179" y="-5" type="curve" smooth="yes"/>
      <point x="257.5" y="-5"/>
      <point x="305" y="57"/>
      <point x="318" y="181.5" type="curve"/>
      <point x="221" y="186.5" type="line"/>
      <point x="216.5" y="101"/>
      <point x="209" y="75"/>
      <point x="179" y="75" type="curve" smooth="yes"/>
      <point x="138" y="75"/>
      <point x="125" y="124.5"/>
      <point x="125" y="250" type="curve" smooth="yes"/>
      <point x="125" y="375.5"/>
      <point x="138" y="425"/>
      <point x="179" y="425" type="curve" smooth="yes"/>
      <point x="209" y="425"/>
      <point x="216.5" y="398.5"/>
      <point x="221" y="311" type="curve"/>
      <point x="318" y="331" type="line"/>
      <point x="302.5" y="445"/>
      <point x="256" y="505"/>
      <point x="179" y="505" type="curve" smooth="yes"/>
      <point x="83.5" y="505"/>
      <point x="22" y="413.5"/>
      <point x="22" y="250" type="curve" smooth="yes"/>
      <point x="22" y="86.5"/>
      <point x="84" y="-5"/>
    </contour>
  </outline>
</glyph>
<glyph name="d" format="2">
  <advance width="363"/>
  <unicode hex="0064"/>
  <guideline x="172" y="382" angle="90"/>
  <outline>
    <contour>
      <point x="257" y="0" type="line"/>
      <point x="325" y="0" type="line"/>
      <point x="325" y="805" type="line"/>
      <point x="225" y="775" type="line"/>
      <point x="225" y="150" type="line"/>
    </contour>
    <component base="_part.bowl" xScale="-1" yScale="-1" xOffset="363" yOffset="500"/>
  </outline>
</glyph>
<glyph name="e" format="2">
  <advance width="347"/>
  <unicode hex="0065"/>
  <guideline x="527" y="425" angle="0"/>
  <anchor x="179" y="-5" name="bottom"/>
  <anchor x="215.5" y="0" name="ogonek"/>
  <anchor x="179" y="505" name="top"/>
  <outline>
    <contour>
      <point x="179" y="-5" type="curve" smooth="yes"/>
      <point x="252.5" y="-5"/>
      <point x="311" y="50.5"/>
      <point x="320" y="165.5" type="curve"/>
      <point x="224" y="170.5" type="line"/>
      <point x="218.5" y="105"/>
      <point x="207" y="80"/>
      <point x="179" y="80" type="curve" smooth="yes"/>
      <point x="139.5" y="80"/>
      <point x="125" y="129.5"/>
      <point x="125" y="250" type="curve" smooth="yes"/>
      <point x="125" y="375.5"/>
      <point x="138" y="425"/>
      <point x="179" y="425" type="curve" smooth="yes"/>
      <point x="209" y="425"/>
      <point x="230" y="398.5"/>
      <point x="230" y="286" type="curve"/>
      <point x="325" y="228" type="line"/>
      <point x="325" y="264" type="line" smooth="yes"/>
      <point x="325" y="422.5"/>
      <point x="270" y="505"/>
      <point x="179" y="505" type="curve" smooth="yes"/>
      <point x="83.5" y="505"/>
      <point x="22" y="413.5"/>
      <point x="22" y="250" type="curve" smooth="yes"/>
      <point x="22" y="86.5"/>
      <point x="84" y="-5"/>
    </contour>
    <contour>
      <point x="96" y="228" type="line"/>
      <point x="325" y="228" type="line"/>
      <point x="305" y="293" type="line"/>
      <point x="96" y="293" type="line"/>
    </contour>
  </outline>
</glyph>
<glyph name="f" format="2">
  <advance width="298.5"/>
  <unicode hex="0066"/>
  <guideline x="288.5" y="540" angle="90"/>
  <guideline x="190" y="710" angle="0"/>
  <outline>
    <contour>
      <point x="76" y="585.5" type="curve" smooth="yes"/>
      <point x="76" y="0.5" type="line"/>
      <point x="176" y="0.5" type="line"/>
      <point x="176" y="560" type="line" smooth="yes"/>
      <point x="176" y="608"/>
      <point x="187.5" y="630"/>
      <point x="217" y="630" type="curve" smooth="yes"/>
      <point x="228" y="630"/>
      <point x="242" y="626.5"/>
      <point x="258.5" y="620.5" type="curve"/>
      <point x="292.5" y="690.5" type="line"/>
      <point x="254.5" y="703"/>
      <point x="220" y="710"/>
      <point x="190" y="710" type="curve" smooth="yes"/>
      <point x="120" y="710"/>
      <point x="76" y="673"/>
    </contour>
    <contour>
      <point x="16" y="420" type="line"/>
      <point x="278.5" y="420" type="line"/>
      <point x="278.5" y="500" type="line"/>
      <point x="16" y="500" type="line"/>
    </contour>
  </outline>
</glyph>
<glyph name="g" format="2">
  <advance width="372"/>
  <unicode hex="0067"/>
  <guideline x="238.5" y="305" angle="90"/>
  <anchor x="179" y="-200" name="bottom"/>
  <anchor x="183.5" y="505" name="top"/>
  <outline>
    <contour>
      <point x="183.5" y="120.5" type="curve" smooth="yes"/>
      <point x="271.5" y="120.5"/>
      <point x="338.5" y="192.5"/>
      <point x="338.5" y="313.5" type="curve" smooth="yes"/>
      <point x="338.5" y="433.5"/>
      <point x="271.5" y="505"/>
      <point x="183.5" y="505" type="curve" smooth="yes"/>
      <point x="95.5" y="505"/>
      <point x="28.5" y="433.5"/>
      <point x="28.5" y="313.5" type="curve" smooth="yes"/>
      <point x="28.5" y="192.5"/>
      <point x="95.5" y="120.5"/>
    </contour>
    <contour>
      <point x="30" y="-77.5" type="curve" smooth="yes"/>
      <point x="30" y="-139"/>
      <point x="85" y="-170"/>
      <point x="149.5" y="-170" type="curve" smooth="yes"/>
      <point x="239" y="-170"/>
      <point x="346" y="-112"/>
      <point x="346" y="-12" type="curve" smooth="yes"/>
      <point x="346" y="41.5"/>
      <point x="310" y="74.5"/>
      <point x="257" y="71.5" type="curve" smooth="yes"/>
      <point x="135" y="65" type="line" smooth="yes"/>
      <point x="115" y="64"/>
      <point x="103.5" y="73"/>
      <point x="103.5" y="86" type="curve" smooth="yes"/>
      <point x="103.5" y="102.5"/>
      <point x="122" y="129"/>
      <point x="164" y="166" type="curve"/>
      <point x="126" y="176" type="line"/>
      <point x="56.5" y="150.5"/>
      <point x="26" y="95"/>
      <point x="26" y="55" type="curve" smooth="yes"/>
      <point x="26" y="20.5"/>
      <point x="51" y="-9.5"/>
      <point x="99" y="-7" type="curve" smooth="yes"/>
      <point x="229" y="0" type="line" smooth="yes"/>
      <point x="249" y="1"/>
      <point x="259" y="-10.5"/>
      <point x="259" y="-25.5" type="curve" smooth="yes"/>
      <point x="259" y="-61"/>
      <point x="210" y="-95"/>
      <point x="156" y="-95" type="curve" smooth="yes"/>
      <point x="126" y="-95"/>
      <point x="102" y="-84.5"/>
      <point x="102" y="-58" type="curve" smooth="yes"/>
      <point x="102" y="-39"/>
      <point x="113.5" y="-5"/>
      <point x="136.5" y="17" type="curve"/>
      <point x="98.5" y="17" type="line"/>
      <point x="53.5" y="-1.5"/>
      <point x="30" y="-45.5"/>
    </contour>
    <contour>
      <point x="183.5" y="200.5" type="curve" smooth="yes"/>
      <point x="149.5" y="200.5"/>
      <point x="128.5" y="251"/>
      <point x="128.5" y="313.5" type="curve" smooth="yes"/>
      <point x="128.5" y="371"/>
      <point x="149.5" y="425"/>
      <point x="183.5" y="425" type="curve" smooth="yes"/>
      <point x="217.5" y="425"/>
      <point x="238.5" y="371"/>
      <point x="238.5" y="313.5" type="curve" smooth="yes"/>
      <point x="238.5" y="251"/>
      <point x="217.5" y="200.5"/>
    </contour>
    <contour>
      <point x="249.5" y="459" type="curve"/>
      <point x="283" y="458.5" type="line"/>
      <point x="263" y="501.5"/>
      <point x="288.5" y="525.5"/>
      <point x="340.5" y="525.5" type="curve"/>
      <point x="340.5" y="621.5" type="line"/>
      <point x="259" y="621.5"/>
      <point x="219" y="554.5"/>
    </contour>
  </outline>
</glyph>
<glyph name="h" format="2">
  <advance width="364"/>
  <unicode hex="0068"/>
  <outline>
    <contour>
      <point x="228" y="372.5" type="curve" smooth="yes"/>
      <point x="228" y="0" type="line"/>
      <point x="328" y="0" type="line"/>
      <point x="328" y="383.5" type="line" smooth="yes"/>
      <point x="328" y="460"/>
      <point x="289.5" y="505"/>
      <point x="225.5" y="505" type="curve" smooth="yes"/>
      <point x="180.5" y="505"/>
      <point x="135" y="474"/>
      <point x="96.5" y="382.5" type="curve"/>
      <point x="121.5" y="327" type="line"/>
      <point x="134" y="384.5"/>
      <point x="169.5" y="425"/>
      <point x="199" y="425" type="curve" smooth="yes"/>
      <point x="216" y="425"/>
      <point x="228" y="409"/>
    </contour>
    <component base="l"/>
  </outline>
</glyph>
<glyph name="k" format="2">
  <advance width="362"/>
  <unicode hex="006B"/>
  <anchor x="186" y="0" name="bottom"/>
  <anchor x="181" y="800" name="top"/>
  <outline>
    <contour>
      <point x="88" y="100" type="line"/>
      <point x="138" y="100" type="line"/>
      <point x="334.5" y="500" type="line"/>
      <point x="229.5" y="500" type="line"/>
    </contour>
    <contour>
      <point x="251" y="0" type="line"/>
      <point x="356" y="0" type="line"/>
      <point x="240" y="314" type="line"/>
      <point x="174" y="314" type="line"/>
    </contour>
    <component base="l"/>
  </outline>
</glyph>
<glyph name="l" format="2">
  <advance width="176"/>
  <unicode hex="006C"/>
  <anchor x="88" y="0" name="bottom"/>
  <anchor x="88" y="400" name="center"/>
  <anchor x="88" y="789.5" name="top"/>
  <anchor x="152" y="800" name="topright"/>
  <outline>
    <contour>
      <point x="38" y="0" type="line"/>
      <point x="138" y="0" type="line"/>
      <point x="138" y="805" type="line"/>
      <point x="38" y="774" type="line"/>
    </contour>
  </outline>
</glyph>
<glyph name="m" format="2">
  <advance width="543"/>
  <unicode hex="006D"/>
  <outline>
    <contour>
      <point x="221" y="372.5" type="curve" smooth="yes"/>
      <point x="221" y="0" type="line"/>
      <point x="322" y="0" type="line"/>
      <point x="322" y="383.5" type="line" smooth="yes"/>
      <point x="322" y="460"/>
      <point x="286.5" y="505"/>
      <point x="222.5" y="505" type="curve" smooth="yes"/>
      <point x="169.5" y="505"/>
      <point x="133" y="474"/>
      <point x="94.5" y="382.5" type="curve"/>
      <point x="119.5" y="327" type="line"/>
      <point x="132" y="384.5"/>
      <point x="164" y="425"/>
      <point x="191" y="425" type="curve" smooth="yes"/>
      <point x="208" y="425"/>
      <point x="221" y="409"/>
    </contour>
    <contour>
      <point x="36" y="0" type="line"/>
      <point x="136" y="0" type="line"/>
      <point x="136" y="400" type="line"/>
      <point x="104" y="500" type="line"/>
      <point x="36" y="500" type="line"/>
    </contour>
    <contour>
      <point x="407" y="372.5" type="curve" smooth="yes"/>
      <point x="407" y="0" type="line"/>
      <point x="507" y="0" type="line"/>
      <point x="507" y="383.5" type="line" smooth="yes"/>
      <point x="507" y="460"/>
      <point x="467.5" y="505"/>
      <point x="403.5" y="505" type="curve" smooth="yes"/>
      <point x="350.5" y="505"/>
      <point x="324" y="474"/>
      <point x="285.5" y="382.5" type="curve"/>
      <point x="310.5" y="327" type="line"/>
      <point x="323" y="384.5"/>
      <point x="350" y="425"/>
      <point x="377" y="425" type="curve" smooth="yes"/>
      <point x="394" y="425"/>
      <point x="407" y="409"/>
    </contour>
  </outline>
</glyph>
<glyph name="n" format="2">
  <advance width="362"/>
  <unicode hex="006E"/>
  <guideline x="225.5" y="505" angle="0"/>
  <anchor x="181" y="0" name="bottom"/>
  <anchor x="181" y="500" name="top"/>
  <outline>
    <contour>
      <point x="226" y="372.5" type="curve" smooth="yes"/>
      <point x="226" y="0" type="line"/>
      <point x="326" y="0" type="line"/>
      <point x="326" y="383.5" type="line" smooth="yes"/>
      <point x="326" y="460"/>
      <point x="287.5" y="505"/>
      <point x="223.5" y="505" type="curve" smooth="yes"/>
      <point x="178.5" y="505"/>
      <point x="133" y="474"/>
      <point x="94.5" y="382.5" type="curve"/>
      <point x="119.5" y="327" type="line"/>
      <point x="132" y="384.5"/>
      <point x="167.5" y="425"/>
      <point x="197" y="425" type="curve" smooth="yes"/>
      <point x="214" y="425"/>
      <point x="226" y="409"/>
    </contour>
    <contour>
      <point x="36" y="0" type="line"/>
      <point x="136" y="0" type="line"/>
      <point x="136" y="400" type="line"/>
      <point x="104" y="500" type="line"/>
      <point x="36" y="500" type="line"/>
    </contour>
  </outline>
</glyph>
<glyph name="o" format="2">
  <advance width="350"/>
  <unicode hex="006F"/>
  <guideline x="175" y="-5" angle="0"/>
  <guideline x="175" y="505" angle="0"/>
  <anchor x="175" y="0" name="bottom"/>
  <anchor x="175" y="250" name="center"/>
  <anchor x="311" y="10" name="ogonek"/>
  <anchor x="175" y="505" name="top"/>
  <anchor x="325" y="500" name="topright"/>
  <outline>
    <contour>
      <point x="175" y="-5" type="curve" smooth="yes"/>
      <point x="272.5" y="-5"/>
      <point x="328" y="80.5"/>
      <point x="328" y="250" type="curve" smooth="yes"/>
      <point x="328" y="418.5"/>
      <point x="272.5" y="505"/>
      <point x="175" y="505" type="curve" smooth="yes"/>
      <point x="77.5" y="505"/>
      <point x="22" y="419"/>
      <point x="22" y="250" type="curve" smooth="yes"/>
      <point x="22" y="81"/>
      <point x="77.5" y="-5"/>
    </contour>
    <contour>
      <point x="175" y="75" type="curve" smooth="yes"/>
      <point x="139" y="75"/>
      <point x="125" y="122"/>
      <point x="125" y="250" type="curve" smooth="yes"/>
      <point x="125" y="378"/>
      <point x="139" y="425"/>
      <point x="175" y="425" type="curve" smooth="yes"/>
      <point x="211" y="425"/>
      <point x="225" y="377.5"/>
      <point x="225" y="249.5" type="curve" smooth="yes"/>
      <point x="225" y="121.5"/>
      <point x="211" y="75"/>
    </contour>
  </outline>
</glyph>
<glyph name="q" format="2">
  <advance width="361"/>
  <unicode hex="0071"/>
  <outline>
    <component base="_part.bowl" xScale="-1" yScale="-1" xOffset="363" yOffset="500" identifier="FAE4C7D1"/>
    <contour>
      <point x="325" y="-200" type="line"/>
      <point x="325" y="500" type="line"/>
      <point x="257" y="500" type="line"/>
      <point x="225" y="350" type="line"/>
      <point x="225" y="-200" type="line"/>
    </contour>
  </outline>
</glyph>
<glyph name="r" format="2">
  <advance width="274"/>
  <unicode hex="0072"/>
  <anchor x="88" y="0" name="bottom"/>
  <anchor x="143" y="500" name="top"/>
  <outline>
    <contour>
      <point x="36" y="0" type="line"/>
      <point x="136" y="0" type="line"/>
      <point x="136" y="400" type="line"/>
      <point x="104" y="500" type="line"/>
      <point x="36" y="500" type="line"/>
    </contour>
    <contour>
      <point x="103.5" y="336.5" type="curve"/>
      <point x="136" y="329.5" type="line"/>
      <point x="144" y="387.5"/>
      <point x="181.5" y="413"/>
      <point x="248" y="404.5" type="curve"/>
      <point x="258" y="509.5" type="line"/>
      <point x="174" y="505"/>
      <point x="122.5" y="446.5"/>
    </contour>
  </outline>
</glyph>
<glyph name="s" format="2">
  <advance width="293"/>
  <unicode hex="0073"/>
  <guideline x="176" y="505" angle="0"/>
  <anchor x="138.5" y="-5" name="bottom"/>
  <anchor x="153.5" y="505" name="top"/>
  <outline>
    <contour>
      <point x="138.5" y="-5" type="curve" smooth="yes"/>
      <point x="228" y="-5"/>
      <point x="277.5" y="56"/>
      <point x="277.5" y="125" type="curve" smooth="yes"/>
      <point x="277.5" y="163"/>
      <point x="262.5" y="197.5"/>
      <point x="232.5" y="231.5" type="curve" smooth="yes"/>
      <point x="155" y="323.5" type="line" smooth="yes"/>
      <point x="139.5" y="341.5"/>
      <point x="121" y="362"/>
      <point x="121" y="385" type="curve" smooth="yes"/>
      <point x="121" y="406.5"/>
      <point x="137.5" y="423.5"/>
      <point x="159" y="423.5" type="curve" smooth="yes"/>
      <point x="181.5" y="423.5"/>
      <point x="208" y="404.5"/>
      <point x="221" y="360" type="curve"/>
      <point x="283" y="433.5" type="line"/>
      <point x="254.5" y="481.5"/>
      <point x="203" y="505"/>
      <point x="153.5" y="505" type="curve" smooth="yes"/>
      <point x="86.5" y="505"/>
      <point x="23" y="465"/>
      <point x="23" y="385.5" type="curve" smooth="yes"/>
      <point x="23" y="348.5"/>
      <point x="37" y="307.5"/>
      <point x="69" y="271" type="curve" smooth="yes"/>
      <point x="134" y="197" type="line" smooth="yes"/>
      <point x="157" y="170.5"/>
      <point x="178.5" y="142.5"/>
      <point x="178.5" y="119" type="curve" smooth="yes"/>
      <point x="178.5" y="97"/>
      <point x="159.5" y="80"/>
      <point x="133.5" y="80" type="curve" smooth="yes"/>
      <point x="98.5" y="80"/>
      <point x="77.5" y="110"/>
      <point x="64.5" y="138" type="curve"/>
      <point x="6" y="72" type="line"/>
      <point x="32" y="20"/>
      <point x="81" y="-5"/>
    </contour>
  </outline>
</glyph>
<glyph name="t" format="2">
  <advance width="278"/>
  <unicode hex="0074"/>
  <guideline x="172" y="631" angle="0"/>
  <anchor x="126" y="0" name="bottom"/>
  <anchor x="126" y="250" name="center"/>
  <anchor x="126" y="621" name="top"/>
  <anchor x="275" y="800" name="topright"/>
  <outline>
    <contour>
      <point x="76" y="0" type="line"/>
      <point x="176" y="0" type="line"/>
      <point x="176" y="631" type="line"/>
      <point x="76" y="600" type="line"/>
    </contour>
    <contour>
      <point x="16" y="420" type="line"/>
      <point x="262" y="420" type="line"/>
      <point x="262" y="500" type="line"/>
      <point x="16" y="500" type="line"/>
    </contour>
  </outline>
</glyph>
<glyph name="u" format="2">
  <advance width="362"/>
  <unicode hex="0075"/>
  <anchor x="181" y="0" name="bottom"/>
  <anchor x="326" y="0" name="ogonek"/>
  <anchor x="181" y="500" name="top"/>
  <anchor x="342" y="500" name="topright"/>
  <outline>
    <contour>
      <point x="134.5" y="-5" type="curve" smooth="yes"/>
      <point x="190" y="-5"/>
      <point x="224" y="30"/>
      <point x="256" y="117.5" type="curve"/>
      <point x="231" y="173" type="line"/>
      <point x="219.5" y="115.5"/>
      <point x="189" y="75"/>
      <point x="161" y="75" type="curve" smooth="yes"/>
      <point x="143.5" y="75"/>
      <point x="136" y="91"/>
      <point x="136" y="127.5" type="curve" smooth="yes"/>
      <point x="136" y="500" type="line"/>
      <point x="36" y="500" type="line"/>
      <point x="36" y="111.5" type="line" smooth="yes"/>
      <point x="36" y="40"/>
      <point x="70.5" y="-5"/>
    </contour>
    <contour>
      <point x="259" y="0" type="line"/>
      <point x="326" y="0" type="line"/>
      <point x="326" y="500" type="line"/>
      <point x="226" y="500" type="line"/>
      <point x="226" y="150" type="line"/>
    </contour>
  </outline>
</glyph>
<glyph name="v" format="2">
  <advance width="338"/>
  <unicode hex="0076"/>
  <guideline x="237" y="86" angle="0"/>
  <outline>
    <contour>
      <point x="112" y="0" type="line"/>
      <point x="224" y="0" type="line"/>
      <point x="332" y="500" type="line"/>
      <point x="227" y="500" type="line"/>
      <point x="162" y="22.5" type="line"/>
      <point x="179.5" y="21.5" type="line"/>
      <point x="111" y="500" type="line"/>
      <point x="6" y="500" type="line"/>
    </contour>
  </outline>
</glyph>
<glyph name="w" format="2">
  <advance width="490"/>
  <unicode hex="0077"/>
  <anchor x="245" y="0" name="bottom"/>
  <anchor x="245" y="500" name="top"/>
  <outline>
    <contour>
      <point x="90.5" y="0" type="line"/>
      <point x="196.5" y="0" type="line"/>
      <point x="268" y="500" type="line"/>
      <point x="209" y="500" type="line"/>
      <point x="143" y="86" type="line"/>
      <point x="111" y="500" type="line"/>
      <point x="6" y="500" type="line"/>
    </contour>
    <contour>
      <point x="285.5" y="0" type="line"/>
      <point x="391.5" y="0" type="line"/>
      <point x="484" y="500" type="line"/>
      <point x="379" y="500" type="line"/>
      <point x="344" y="86" type="line"/>
      <point x="283" y="500" type="line"/>
      <point x="224" y="500" type="line"/>
    </contour>
  </outline>
</glyph>
<glyph name="x" format="2">
  <advance width="340"/>
  <unicode hex="0078"/>
  <outline>
    <contour>
      <point x="115" y="210" type="line"/>
      <point x="225.5" y="210" type="line"/>
      <point x="326.5" y="500" type="line"/>
      <point x="227.5" y="500" type="line"/>
      <point x="166.5" y="256" type="line"/>
      <point x="174" y="256" type="line"/>
      <point x="111" y="500" type="line"/>
      <point x="6" y="500" type="line"/>
    </contour>
    <contour>
      <point x="13.5" y="0" type="line"/>
      <point x="112.5" y="0" type="line"/>
      <point x="173.5" y="244" type="line"/>
      <point x="166" y="244" type="line"/>
      <point x="229" y="0" type="line"/>
      <point x="334" y="0" type="line"/>
      <point x="225" y="290" type="line"/>
      <point x="114.5" y="290" type="line"/>
    </contour>
  </outline>
</glyph>
<glyph name="y" format="2">
  <advance width="338"/>
  <unicode hex="0079"/>
  <anchor x="169" y="0" name="bottom"/>
  <anchor x="169" y="500" name="top"/>
  <outline>
    <contour>
      <point x="83" y="-200" type="line"/>
      <point x="179" y="-200" type="line"/>
      <point x="332" y="500" type="line"/>
      <point x="227" y="500" type="line"/>
      <point x="168.5" y="101.5" type="line"/>
      <point x="111" y="500" type="line"/>
      <point x="6" y="500" type="line"/>
      <point x="114.5" y="0" type="line"/>
      <point x="142" y="0" type="line"/>
    </contour>
  </outline>
</glyph>
<glyph name="z" format="2">
  <advance width="305"/>
  <unicode hex="007A"/>
  <anchor x="163" y="0" name="bottom"/>
  <anchor x="163" y="250" name="center"/>
  <anchor x="163" y="500" name="top"/>
  <outline>
    <contour>
      <point x="10" y="0" type="line"/>
      <point x="116" y="0" type="line"/>
      <point x="295" y="500" type="line"/>
      <point x="189" y="500" type="line"/>
    </contour>
    <contour>
      <point x="75" y="0" type="line"/>
      <point x="280" y="0" type="line"/>
      <point x="280" y="85" type="line"/>
      <point x="75" y="85" type="line"/>
    </contour>
    <contour>
      <point x="20" y="415" type="line"/>
      <point x="211" y="415" type="line"/>
      <point x="211" y="500" type="line"/>
      <point x="20" y="500" type="line"/>
    </contour>
  </outline>
</glyph>
<glyph name="braceleft" format="2">
  <advance width="276"/>
  <unicode hex="007B"/>
  <outline>
    <contour>
      <point x="71" y="521.5" type="curve"/>
      <point x="161" y="521.5" type="line"/>
      <point x="161" y="620"/>
      <point x="178" y="644.5"/>
      <point x="246" y="645" type="curve"/>
      <point x="246" y="725" type="line"/>
      <point x="106" y="725.5"/>
      <point x="71" y="655.5"/>
    </contour>
    <contour>
      <point x="246" y="-25" type="curve"/>
      <point x="246" y="55" type="line"/>
      <point x="178" y="55.5"/>
      <point x="161" y="80"/>
      <point x="161" y="178.5" type="curve"/>
      <point x="71" y="178.5" type="line"/>
      <point x="71" y="44.5"/>
      <point x="106" y="-25.5"/>
    </contour>
    <contour>
      <point x="71" y="178.5" type="curve"/>
      <point x="161" y="178.5" type="line"/>
      <point x="161" y="319"/>
      <point x="131" y="354"/>
      <point x="31" y="353.5" type="curve"/>
      <point x="31" y="315" type="line"/>
      <point x="59" y="314.5"/>
      <point x="71" y="286"/>
    </contour>
    <contour>
      <point x="16" y="315" type="line"/>
      <point x="39.5" y="315" type="line"/>
      <point x="39.5" y="385" type="line"/>
      <point x="16" y="385" type="line"/>
    </contour>
    <contour>
      <point x="31" y="385" type="curve"/>
      <point x="31" y="346.5" type="line"/>
      <point x="131" y="346"/>
      <point x="161" y="381"/>
      <point x="161" y="521.5" type="curve"/>
      <point x="71" y="521.5" type="line"/>
      <point x="71" y="414"/>
      <point x="59" y="385.5"/>
    </contour>
  </outline>
</glyph>
<glyph name="braceright" format="2">
  <advance width="276.5"/>
  <unicode hex="007D"/>
  <outline>
    <contour>
      <point x="116" y="521.5" type="curve"/>
      <point x="206" y="521.5" type="line"/>
      <point x="206" y="655.5"/>
      <point x="171" y="725.5"/>
      <point x="31" y="725" type="curve"/>
      <point x="31" y="645" type="line"/>
      <point x="99" y="644.5"/>
      <point x="116" y="620"/>
    </contour>
    <contour>
      <point x="31" y="55" type="curve"/>
      <point x="31" y="-25" type="line"/>
      <point x="171" y="-25.5"/>
      <point x="206" y="44.5"/>
      <point x="206" y="178.5" type="curve"/>
      <point x="116" y="178.5" type="line"/>
      <point x="116" y="80"/>
      <point x="99" y="55.5"/>
    </contour>
    <contour>
      <point x="116" y="178.5" type="curve"/>
      <point x="206" y="178.5" type="line"/>
      <point x="206" y="286"/>
      <point x="218" y="314.5"/>
      <point x="246" y="315" type="curve"/>
      <point x="246" y="353.5" type="line"/>
      <point x="146" y="354"/>
      <point x="116" y="319"/>
    </contour>
    <contour>
      <point x="261" y="315" type="line"/>
      <point x="261" y="385" type="line"/>
      <point x="237.5" y="385" type="line"/>
      <point x="237.5" y="315" type="line"/>
    </contour>
    <contour>
      <point x="246" y="346.5" type="curve"/>
      <point x="246" y="385" type="line"/>
      <point x="218" y="385.5"/>
      <point x="206" y="414"/>
      <point x="206" y="521.5" type="curve"/>
      <point x="116" y="521.5" type="line"/>
      <point x="116" y="381"/>
      <point x="146" y="346"/>
    </contour>
  </outline>
</glyph>
<glyph name="exclamdown" format="2">
  <advance width="212"/>
  <unicode hex="00A1"/>
  <outline>
    <contour>
      <point x="71.5" y="462" type="line"/>
      <point x="40" y="-100" type="line"/>
      <point x="172" y="-100" type="line"/>
      <point x="140.5" y="462" type="line"/>
    </contour>
    <component base="period" yScale="-1" xOffset="29" yOffset="600" identifier="B495CF41"/>
  </outline>
</glyph>
<glyph name="cent" format="2">
  <advance width="370.5"/>
  <unicode hex="00A2"/>
  <outline>
    <contour>
      <point x="189" y="-5" type="curve" smooth="yes"/>
      <point x="287" y="-5"/>
      <point x="341.5" y="57"/>
      <point x="354.5" y="181.5" type="curve"/>
      <point x="262.5" y="186.5" type="line"/>
      <point x="258" y="101"/>
      <point x="226" y="75"/>
      <point x="189" y="75" type="curve" smooth="yes"/>
      <point x="138" y="75"/>
      <point x="120" y="124.5"/>
      <point x="120" y="250" type="curve" smooth="yes"/>
      <point x="120" y="375.5"/>
      <point x="138" y="425"/>
      <point x="189" y="425" type="curve" smooth="yes"/>
      <point x="226" y="425"/>
      <point x="258" y="398.5"/>
      <point x="262.5" y="311" type="curve"/>
      <point x="354.5" y="331" type="line"/>
      <point x="339" y="445"/>
      <point x="284.5" y="505"/>
      <point x="189" y="505" type="curve" smooth="yes"/>
      <point x="72.5" y="505"/>
      <point x="22" y="413.5"/>
      <point x="22" y="250" type="curve" smooth="yes"/>
      <point x="22" y="86.5"/>
      <point x="72.5" y="-5"/>
    </contour>
    <contour>
      <point x="171.5" y="-50" type="line"/>
      <point x="216.5" y="-50" type="line"/>
      <point x="216.5" y="550" type="line"/>
      <point x="171.5" y="550" type="line"/>
    </contour>
  </outline>
</glyph>
<glyph name="yen" format="2">
  <advance width="366"/>
  <unicode hex="00A5"/>
  <outline>
    <contour>
      <point x="134" y="227" type="line"/>
      <point x="230" y="227" type="line"/>
      <point x="352" y="700" type="line"/>
      <point x="252" y="700" type="line"/>
      <point x="177.5" y="320.5" type="line"/>
      <point x="193" y="320.5" type="line"/>
      <point x="124" y="700" type="line"/>
      <point x="14" y="700" type="line"/>
    </contour>
    <contour>
      <point x="40" y="82.5" type="line"/>
      <point x="328" y="82.5" type="line"/>
      <point x="328" y="127.5" type="line"/>
      <point x="40" y="127.5" type="line"/>
    </contour>
    <contour>
      <point x="132" y="0" type="line"/>
      <point x="232" y="0" type="line"/>
      <point x="232" y="242.5" type="line"/>
      <point x="132" y="242.5" type="line"/>
    </contour>
    <contour>
      <point x="40" y="177.5" type="line"/>
      <point x="328" y="177.5" type="line"/>
      <point x="328" y="222.5" type="line"/>
      <point x="40" y="222.5" type="line"/>
    </contour>
  </outline>
</glyph>
<glyph name="brokenbar" format="2">
  <advance width="152"/>
  <unicode hex="00A6"/>
  <outline>
    <contour>
      <point x="36" y="350" type="line"/>
      <point x="116" y="350" type="line"/>
      <point x="116" y="700" type="line"/>
      <point x="36" y="700" type="line"/>
    </contour>
    <contour>
      <point x="36" y="-100" type="line"/>
      <point x="116" y="-100" type="line"/>
      <point x="116" y="250" type="line"/>
      <point x="36" y="250" type="line"/>
    </contour>
  </outline>
</glyph>
<glyph name="copyright" format="2">
  <advance width="598"/>
  <unicode hex="00A9"/>
  <anchor x="193.5" y="75" name="bottom"/>
  <anchor x="193.5" y="625.5" name="top"/>
  <outline>
    <contour>
      <point x="299" y="-17.5" type="curve" smooth="yes"/>
      <point x="447" y="-17.5"/>
      <point x="572" y="147"/>
      <point x="572" y="350" type="curve" smooth="yes"/>
      <point x="572" y="553"/>
      <point x="447" y="717.5"/>
      <point x="299" y="717.5" type="curve" smooth="yes"/>
      <point x="151" y="717.5"/>
      <point x="26" y="553"/>
      <point x="26" y="350" type="curve" smooth="yes"/>
      <point x="26" y="147"/>
      <point x="151" y="-17.5"/>
    </contour>
    <contour>
      <point x="299" y="73.5" type="curve" smooth="yes"/>
      <point x="188" y="73.5"/>
      <point x="97.5" y="198"/>
      <point x="97.5" y="350" type="curve" smooth="yes"/>
      <point x="97.5" y="502"/>
      <point x="188" y="626.5"/>
      <point x="299" y="626.5" type="curve" smooth="yes"/>
      <point x="410" y="626.5"/>
      <point x="500" y="502"/>
      <point x="500" y="350" type="curve" smooth="yes"/>
      <point x="500" y="198"/>
      <point x="410" y="73.5"/>
    </contour>
    <contour>
      <point x="304.5" y="147" type="curve" smooth="yes"/>
      <point x="345" y="147"/>
      <point x="373.5" y="173.5"/>
      <point x="398" y="214.5" type="curve"/>
      <point x="342" y="261" type="line"/>
      <point x="333" y="232.5"/>
      <point x="318.5" y="216.5"/>
      <point x="304.5" y="216.5" type="curve" smooth="yes"/>
      <point x="270" y="216.5"/>
      <point x="246" y="270.5"/>
      <point x="246" y="349.5" type="curve" smooth="yes"/>
      <point x="246" y="429"/>
      <point x="270" y="483"/>
      <point x="304.5" y="483" type="curve" smooth="yes"/>
      <point x="318.5" y="483"/>
      <point x="333" y="467"/>
      <point x="342" y="438.5" type="curve"/>
      <point x="398" y="485" type="line"/>
      <point x="373.5" y="526"/>
      <point x="338" y="552.5"/>
      <point x="304.5" y="552.5" type="curve" smooth="yes"/>
      <point x="224.5" y="552.5"/>
      <point x="169.5" y="470"/>
      <point x="169.5" y="349.5" type="curve" smooth="yes"/>
      <point x="169.5" y="229.5"/>
      <point x="224.5" y="147"/>
    </contour>
  </outline>
</glyph>
<glyph name="guillemotleft" format="2">
  <advance width="283"/>
  <unicode hex="00AB"/>
  <outline>
    <contour>
      <point x="135.5" y="289" type="line"/>
      <point x="201" y="289" type="line"/>
      <point x="258" y="394.5" type="line"/>
      <point x="202" y="415" type="line"/>
    </contour>
    <contour>
      <point x="86.5" y="163" type="line"/>
      <point x="142.5" y="183.5" type="line"/>
      <point x="85.5" y="289" type="line"/>
      <point x="20" y="289" type="line"/>
    </contour>
    <contour>
      <point x="202" y="163" type="line"/>
      <point x="258" y="183.5" type="line"/>
      <point x="201" y="289" type="line"/>
      <point x="135.5" y="289" type="line"/>
    </contour>
    <contour>
      <point x="20" y="289" type="line"/>
      <point x="85.5" y="289" type="line"/>
      <point x="142.5" y="394.5" type="line"/>
      <point x="86.5" y="415" type="line"/>
    </contour>
  </outline>
</glyph>
<glyph name="degree" format="2">
  <advance width="298.5"/>
  <unicode hex="00B0"/>
  <guideline x="199" y="710" angle="0"/>
  <outline>
    <contour>
      <point x="149" y="446.5" type="curve" smooth="yes"/>
      <point x="220" y="446.5"/>
      <point x="278.5" y="504"/>
      <point x="278.5" y="575.5" type="curve" smooth="yes"/>
      <point x="278.5" y="646.5"/>
      <point x="220" y="705"/>
      <point x="149" y="705" type="curve" smooth="yes"/>
      <point x="78.5" y="705"/>
      <point x="20" y="646.5"/>
      <point x="20" y="575.5" type="curve" smooth="yes"/>
      <point x="20" y="504"/>
      <point x="78.5" y="446.5"/>
    </contour>
    <contour>
      <point x="149" y="515.5" type="curve" smooth="yes"/>
      <point x="115.5" y="515.5"/>
      <point x="89" y="542"/>
      <point x="89" y="575.5" type="curve" smooth="yes"/>
      <point x="89" y="607.5"/>
      <point x="115.5" y="636"/>
      <point x="149" y="636" type="curve" smooth="yes"/>
      <point x="181" y="636"/>
      <point x="209.5" y="607.5"/>
      <point x="209.5" y="575.5" type="curve" smooth="yes"/>
      <point x="209.5" y="542"/>
      <point x="181" y="515.5"/>
    </contour>
  </outline>
</glyph>
<glyph name="paragraph" format="2">
  <advance width="564"/>
  <unicode hex="00B6"/>
  <outline>
    <contour>
      <point x="428" y="-100" type="line"/>
      <point x="528" y="-100" type="line"/>
      <point x="528" y="700" type="line"/>
      <point x="428" y="700" type="line"/>
    </contour>
    <contour>
      <point x="207" y="243" type="curve" smooth="yes"/>
      <point x="281" y="243" type="line"/>
      <point x="281" y="343" type="line"/>
      <point x="224" y="343" type="line" smooth="yes"/>
      <point x="166.5" y="343"/>
      <point x="138" y="407.5"/>
      <point x="138" y="471.5" type="curve"/>
      <point x="36" y="482" type="line"/>
      <point x="36" y="321"/>
      <point x="121.5" y="243"/>
    </contour>
    <contour>
      <point x="258" y="-100" type="line"/>
      <point x="358" y="-100" type="line"/>
      <point x="358" y="700" type="line"/>
      <point x="258" y="700" type="line"/>
    </contour>
    <contour>
      <point x="36" y="482" type="curve"/>
      <point x="138" y="471.5" type="line"/>
      <point x="138" y="535.5"/>
      <point x="166.5" y="600"/>
      <point x="224" y="600" type="curve" smooth="yes"/>
      <point x="281" y="600" type="line"/>
      <point x="281" y="700" type="line"/>
      <point x="207" y="700" type="line" smooth="yes"/>
      <point x="121.5" y="700"/>
      <point x="36" y="642.5"/>
    </contour>
  </outline>
</glyph>
<glyph name="periodcentered" format="2">
  <advance width="174"/>
  <unicode hex="00B7"/>
  <outline>
    <contour>
      <point x="87" y="209" type="curve" smooth="yes"/>
      <point x="120.5" y="209"/>
      <point x="148" y="236.5"/>
      <point x="148" y="270" type="curve" smooth="yes"/>
      <point x="148" y="303.5"/>
      <point x="120.5" y="331"/>
      <point x="87" y="331" type="curve" smooth="yes"/>
      <point x="53.5" y="331"/>
      <point x="26" y="303.5"/>
      <point x="26" y="270" type="curve" smooth="yes"/>
      <point x="26" y="236.5"/>
      <point x="53.5" y="209"/>
    </contour>
  </outline>
</glyph>
<glyph name="AE" format="2">
  <advance width="459"/>
  <unicode hex="00C6"/>
  <anchor x="258" y="0" name="bottom"/>
  <anchor x="258" y="700" name="top"/>
  <outline>
    <contour>
      <point x="14" y="0" type="line"/>
      <point x="114" y="0" type="line"/>
      <point x="224.5" y="700" type="line"/>
      <point x="143.5" y="700" type="line"/>
    </contour>
    <contour>
      <point x="82.5" y="128" type="line"/>
      <point x="257" y="128" type="line"/>
      <point x="257" y="218" type="line"/>
      <point x="82.5" y="218" type="line"/>
    </contour>
    <contour>
      <point x="264" y="0" type="line"/>
      <point x="439" y="0" type="line"/>
      <point x="439" y="90" type="line"/>
      <point x="264" y="90" type="line"/>
    </contour>
    <contour>
      <point x="214" y="0" type="line"/>
      <point x="314" y="0" type="line"/>
      <point x="314" y="700" type="line"/>
      <point x="214" y="700" type="line"/>
    </contour>
    <contour>
      <point x="264" y="328" type="line"/>
      <point x="419" y="328" type="line"/>
      <point x="419" y="418" type="line"/>
      <point x="264" y="418" type="line"/>
    </contour>
    <contour>
      <point x="264" y="610" type="line"/>
      <point x="439" y="610" type="line"/>
      <point x="439" y="700" type="line"/>
      <point x="264" y="700" type="line"/>
    </contour>
  </outline>
</glyph>
<glyph name="Eth" format="2">
  <advance width="423"/>
  <unicode hex="00D0"/>
  <outline>
    <contour>
      <point x="159" y="95" type="curve"/>
      <point x="159" y="0" type="line"/>
      <point x="280" y="0"/>
      <point x="397" y="76.5"/>
      <point x="397" y="350" type="curve" smooth="yes"/>
      <point x="397" y="623.5"/>
      <point x="280" y="700"/>
      <point x="159" y="700" type="curve"/>
      <point x="159" y="605" type="line"/>
      <point x="230.5" y="604"/>
      <point x="287" y="557.5"/>
      <point x="287" y="350" type="curve" smooth="yes"/>
      <point x="287" y="142"/>
      <point x="230.5" y="95"/>
    </contour>
    <contour>
      <point x="59" y="0" type="line"/>
      <point x="159" y="0" type="line"/>
      <point x="159" y="700" type="line"/>
      <point x="59" y="700" type="line"/>
    </contour>
    <contour>
      <point x="10" y="325" type="line"/>
      <point x="245" y="325" type="line"/>
      <point x="245" y="375" type="line"/>
      <point x="10" y="375" type="line"/>
    </contour>
  </outline>
</glyph>
<glyph name="multiply" format="2">
  <advance width="311"/>
  <unicode hex="00D7"/>
  <outline>
    <contour>
      <point x="237.5" y="148" type="line"/>
      <point x="18.5" y="367" type="line"/>
      <point x="73.5" y="422" type="line"/>
      <point x="292.5" y="203" type="line"/>
    </contour>
    <contour>
      <point x="73.5" y="148" type="line"/>
      <point x="292.5" y="367" type="line"/>
      <point x="237.5" y="422" type="line"/>
      <point x="18.5" y="203" type="line"/>
    </contour>
  </outline>
</glyph>
<glyph name="Oslash" format="2">
  <advance width="422"/>
  <unicode hex="00D8"/>
  <unicode hex="00F8"/>
  <anchor x="-37.5" y="700" name="topleft"/>
  <anchor x="462.5" y="700" name="topright"/>
  <outline>
    <contour>
      <point x="10" y="-50" type="line"/>
      <point x="62.5" y="-50" type="line"/>
      <point x="412" y="750" type="line"/>
      <point x="359.5" y="750" type="line"/>
    </contour>
    <contour>
      <point x="211" y="-10" type="curve" smooth="yes"/>
      <point x="317" y="-10"/>
      <point x="396" y="76.5"/>
      <point x="396" y="350" type="curve" smooth="yes"/>
      <point x="396" y="623.5"/>
      <point x="317" y="710"/>
      <point x="211" y="710" type="curve" smooth="yes"/>
      <point x="105" y="710"/>
      <point x="26" y="623.5"/>
      <point x="26" y="350" type="curve" smooth="yes"/>
      <point x="26" y="76.5"/>
      <point x="105" y="-10"/>
    </contour>
    <contour>
      <point x="211" y="85" type="curve" smooth="yes"/>
      <point x="169.5" y="85"/>
      <point x="131" y="142"/>
      <point x="131" y="350" type="curve" smooth="yes"/>
      <point x="131" y="558"/>
      <point x="169.5" y="615"/>
      <point x="211" y="615" type="curve" smooth="yes"/>
      <point x="252.5" y="615"/>
      <point x="291" y="558"/>
      <point x="291" y="350" type="curve" smooth="yes"/>
      <point x="291" y="142"/>
      <point x="252.5" y="85"/>
    </contour>
  </outline>
</glyph>
<glyph name="Thorn" format="2">
  <advance width="383"/>
  <unicode hex="00DE"/>
  <outline>
    <contour>
      <point x="36" y="0" type="line"/>
      <point x="141" y="0" type="line"/>
      <point x="141" y="700" type="line"/>
      <point x="36" y="700" type="line"/>
    </contour>
    <contour>
      <point x="118" y="116.5" type="line"/>
      <point x="192" y="116.5" type="line" smooth="yes"/>
      <point x="277.5" y="116.5"/>
      <point x="363" y="194.5"/>
      <point x="363" y="380.5" type="curve"/>
      <point x="261" y="370" type="line"/>
      <point x="261" y="281"/>
      <point x="232.5" y="216.5"/>
      <point x="175" y="216.5" type="curve" smooth="yes"/>
      <point x="118" y="216.5" type="line"/>
    </contour>
    <contour>
      <point x="261" y="370" type="curve"/>
      <point x="363" y="380.5" type="line"/>
      <point x="363" y="566"/>
      <point x="277.5" y="623.5"/>
      <point x="192" y="623.5" type="curve" smooth="yes"/>
      <point x="118" y="623.5" type="line"/>
      <point x="118" y="523.5" type="line"/>
      <point x="175" y="523.5" type="line" smooth="yes"/>
      <point x="232.5" y="523.5"/>
      <point x="261" y="459"/>
    </contour>
  </outline>
</glyph>
<glyph name="germandbls" format="2">
  <advance width="436"/>
  <unicode hex="00DF"/>
  <outline>
    <contour>
      <point x="217.5" y="95" type="curve"/>
      <point x="217.5" y="0" type="line"/>
      <point x="364.5" y="0"/>
      <point x="410" y="84.5"/>
      <point x="410" y="176" type="curve" smooth="yes"/>
      <point x="410" y="305"/>
      <point x="321" y="336.5"/>
      <point x="321" y="424" type="curve" smooth="yes"/>
      <point x="321" y="486"/>
      <point x="365.5" y="536.5"/>
      <point x="365.5" y="594" type="curve" smooth="yes"/>
      <point x="365.5" y="658.5"/>
      <point x="309" y="700"/>
      <point x="231.5" y="700" type="curve" smooth="yes"/>
      <point x="149" y="700"/>
      <point x="75.5" y="652.5"/>
      <point x="75.5" y="552" type="curve"/>
      <point x="171.5" y="547" type="line"/>
      <point x="171.5" y="596.5"/>
      <point x="197" y="623"/>
      <point x="225.5" y="623" type="curve" smooth="yes"/>
      <point x="249.5" y="623"/>
      <point x="270.5" y="604.5"/>
      <point x="270.5" y="568" type="curve" smooth="yes"/>
      <point x="270.5" y="516.5"/>
      <point x="228" y="483.5"/>
      <point x="228" y="418.5" type="curve" smooth="yes"/>
      <point x="228" y="328.5"/>
      <point x="310" y="278.5"/>
      <point x="310" y="185" type="curve" smooth="yes"/>
      <point x="310" y="127"/>
      <point x="278.5" y="95"/>
    </contour>
    <contour>
      <point x="75.5" y="0" type="line"/>
      <point x="171.5" y="0" type="line"/>
      <point x="171.5" y="547" type="line"/>
      <point x="75.5" y="552" type="line"/>
    </contour>
    <contour>
      <point x="16" y="420" type="line"/>
      <point x="138" y="420" type="line"/>
      <point x="138" y="500" type="line"/>
      <point x="16" y="500" type="line"/>
    </contour>
  </outline>
</glyph>
<glyph name="ae" format="2">
  <advance width="522"/>
  <unicode hex="00E6"/>
  <guideline x="398" y="171.5" angle="90"/>
  <guideline x="200.5" y="86.5" angle="0"/>
  <outline>
    <contour>
      <point x="353" y="-5" type="curve" smooth="yes"/>
      <point x="427.5" y="-5"/>
      <point x="486" y="50.5"/>
      <point x="495" y="165.5" type="curve"/>
      <point x="399" y="170.5" type="line"/>
      <point x="393.5" y="100"/>
      <point x="382" y="75"/>
      <point x="353" y="75" type="curve" smooth="yes"/>
      <point x="312" y="75"/>
      <point x="289" y="124.5"/>
      <point x="289" y="250" type="curve" smooth="yes"/>
      <point x="289" y="375.5"/>
      <point x="312" y="425"/>
      <point x="353" y="425" type="curve" smooth="yes"/>
      <point x="383" y="425"/>
      <point x="405" y="398.5"/>
      <point x="405" y="286" type="curve"/>
      <point x="500" y="228" type="line"/>
      <point x="500" y="264" type="line" smooth="yes"/>
      <point x="500" y="422.5"/>
      <point x="444" y="505"/>
      <point x="353" y="505" type="curve" smooth="yes"/>
      <point x="272" y="505"/>
      <point x="228.5" y="422.5"/>
      <point x="228.5" y="278" type="curve"/>
      <point x="201" y="268.5" type="line"/>
      <point x="201" y="86.5"/>
      <point x="258" y="-5"/>
    </contour>
    <contour>
      <point x="126.5" y="-5" type="curve" smooth="yes"/>
      <point x="196" y="-5"/>
      <point x="271" y="55.5"/>
      <point x="271" y="138" type="curve"/>
      <point x="216" y="150" type="line"/>
      <point x="216" y="107.5"/>
      <point x="181" y="79"/>
      <point x="153" y="79" type="curve" smooth="yes"/>
      <point x="125" y="79"/>
      <point x="110" y="107.5"/>
      <point x="110" y="148.5" type="curve" smooth="yes"/>
      <point x="110" y="194"/>
      <point x="131.5" y="267.5"/>
      <point x="259.5" y="267.5" type="curve"/>
      <point x="259.5" y="315.5" type="line"/>
      <point x="75" y="315.5"/>
      <point x="16" y="226.5"/>
      <point x="16" y="133" type="curve" smooth="yes"/>
      <point x="16" y="45.5"/>
      <point x="63" y="-5"/>
    </contour>
    <contour>
      <point x="201" y="373.5" type="curve" smooth="yes"/>
      <point x="201" y="277.5" type="line"/>
      <point x="267" y="277.5" type="line"/>
      <point x="267" y="400" type="line" smooth="yes"/>
      <point x="267" y="482.5"/>
      <point x="248" y="505"/>
      <point x="184" y="505" type="curve" smooth="yes"/>
      <point x="143.5" y="505"/>
      <point x="90" y="496"/>
      <point x="42" y="478" type="curve"/>
      <point x="60" y="399.5" type="line"/>
      <point x="97.5" y="417.5"/>
      <point x="131.5" y="425"/>
      <point x="160" y="425" type="curve" smooth="yes"/>
      <point x="190.5" y="425"/>
      <point x="201" y="413"/>
    </contour>
    <contour>
      <point x="269" y="228" type="line"/>
      <point x="499.5" y="228" type="line"/>
      <point x="484" y="293" type="line"/>
      <point x="269" y="293" type="line"/>
    </contour>
  </outline>
</glyph>
<glyph name="eth" format="2">
  <advance width="359.5"/>
  <unicode hex="00F0"/>
  <guideline x="603" y="248.5" angle="0"/>
  <guideline x="553" y="505" angle="0"/>
  <guideline x="553" y="-5" angle="0"/>
  <guideline x="553" y="75" angle="0"/>
  <guideline x="175" y="505" angle="0"/>
  <outline>
    <contour>
      <point x="183" y="-5" type="curve" smooth="yes"/>
      <point x="290.5" y="-5"/>
      <point x="337.5" y="97.5"/>
      <point x="337.5" y="287" type="curve" smooth="yes"/>
      <point x="337.5" y="432.5"/>
      <point x="282.5" y="601"/>
      <point x="136.5" y="750" type="curve"/>
      <point x="91" y="704.5" type="line"/>
      <point x="202" y="575.5"/>
      <point x="234.5" y="418.5"/>
      <point x="234.5" y="291.5" type="curve" smooth="yes"/>
      <point x="234.5" y="118.5"/>
      <point x="219" y="75"/>
      <point x="183" y="75" type="curve" smooth="yes"/>
      <point x="151" y="75"/>
      <point x="125" y="109.5"/>
      <point x="125" y="248.5" type="curve"/>
      <point x="22" y="248.5" type="line"/>
      <point x="22" y="75.5"/>
      <point x="88" y="-5"/>
    </contour>
    <contour>
      <point x="22" y="248.5" type="curve"/>
      <point x="125" y="248.5" type="line"/>
      <point x="125" y="385.5"/>
      <point x="151" y="436.5"/>
      <point x="185.5" y="436.5" type="curve" smooth="yes"/>
      <point x="205.5" y="436.5"/>
      <point x="228" y="419"/>
      <point x="250.5" y="388.5" type="curve"/>
      <point x="287.5" y="439" type="line"/>
      <point x="251" y="484"/>
      <point x="211" y="505"/>
      <point x="174" y="505" type="curve" smooth="yes"/>
      <point x="92" y="505"/>
      <point x="22" y="409"/>
    </contour>
    <contour>
      <point x="53.5" y="581.5" type="line"/>
      <point x="309" y="628.5" type="line"/>
      <point x="299.5" y="673" type="line"/>
      <point x="39.5" y="626" type="line"/>
    </contour>
  </outline>
</glyph>
<glyph name="thorn" format="2">
  <advance width="358"/>
  <unicode hex="00FE"/>
  <guideline x="170" y="631" angle="0"/>
  <outline>
    <contour>
      <point x="38" y="-200" type="line"/>
      <point x="134" y="-200" type="line"/>
      <point x="134" y="631" type="line"/>
      <point x="38" y="600" type="line"/>
    </contour>
    <contour>
      <point x="208.5" y="505" type="curve" smooth="yes"/>
      <point x="132.5" y="505"/>
      <point x="105.5" y="440"/>
      <point x="107" y="315" type="curve"/>
      <point x="134" y="295" type="line"/>
      <point x="134" y="380.5"/>
      <point x="142.5" y="425"/>
      <point x="179" y="425" type="curve" smooth="yes"/>
      <point x="209" y="425"/>
      <point x="238" y="395"/>
      <point x="238" y="261" type="curve" smooth="yes"/>
      <point x="238" y="129"/>
      <point x="210.5" y="75"/>
      <point x="181" y="75" type="curve" smooth="yes"/>
      <point x="156" y="75"/>
      <point x="134" y="114"/>
      <point x="134" y="179" type="curve"/>
      <point x="107" y="159" type="line"/>
      <point x="107" y="55"/>
      <point x="152.5" y="-5"/>
      <point x="211" y="-5" type="curve" smooth="yes"/>
      <point x="290.5" y="-5"/>
      <point x="335.5" y="107.5"/>
      <point x="336" y="266" type="curve" smooth="yes"/>
      <point x="336.5" y="437.5"/>
      <point x="286" y="505"/>
    </contour>
  </outline>
</glyph>
<glyph name="gdotaccent" format="2">
  <advance width="366"/>
  <unicode hex="0121"/>
  <anchor x="183" y="-200" name="bottom"/>
  <anchor x="187.5" y="505" name="top"/>
  <outline>
    <contour>
      <point x="183.5" y="110.5" type="curve" smooth="yes"/>
      <point x="271.5" y="110.5"/>
      <point x="334.5" y="182.5"/>
      <point x="334.5" y="308.5" type="curve" smooth="yes"/>
      <point x="334.5" y="433.5"/>
      <point x="271.5" y="505"/>
      <point x="183.5" y="505" type="curve" smooth="yes"/>
      <point x="95.5" y="505"/>
      <point x="32.5" y="433.5"/>
      <point x="32.5" y="308.5" type="curve" smooth="yes"/>
      <point x="32.5" y="182.5"/>
      <point x="95.5" y="110.5"/>
    </contour>
    <contour>
      <point x="151" y="-169" type="curve" smooth="yes"/>
      <point x="232.5" y="-169"/>
      <point x="346" y="-114"/>
      <point x="346" y="-12" type="curve" smooth="yes"/>
      <point x="346" y="41.5"/>
      <point x="315" y="74.5"/>
      <point x="262" y="71.5" type="curve" smooth="yes"/>
      <point x="136.5" y="64.5" type="line" smooth="yes"/>
      <point x="116.5" y="63.5"/>
      <point x="105" y="72.5"/>
      <point x="105" y="85.5" type="curve" smooth="yes"/>
      <point x="105" y="102"/>
      <point x="123.5" y="128.5"/>
      <point x="165.5" y="165.5" type="curve"/>
      <point x="126" y="176" type="line"/>
      <point x="56.5" y="150.5"/>
      <point x="26" y="95"/>
      <point x="26" y="55" type="curve" smooth="yes"/>
      <point x="26" y="20.5"/>
      <point x="51" y="-9.5"/>
      <point x="99" y="-7" type="curve" smooth="yes"/>
      <point x="236" y="0" type="line" smooth="yes"/>
      <point x="256" y="1"/>
      <point x="266" y="-10.5"/>
      <point x="266" y="-25.5" type="curve" smooth="yes"/>
      <point x="266" y="-61"/>
      <point x="209.5" y="-95"/>
      <point x="156" y="-95" type="curve" smooth="yes"/>
      <point x="126" y="-95"/>
      <point x="102" y="-84.5"/>
      <point x="102" y="-58" type="curve" smooth="yes"/>
      <point x="102" y="-39"/>
      <point x="113.5" y="-5"/>
      <point x="136.5" y="17" type="curve"/>
      <point x="98.5" y="17" type="line"/>
      <point x="53.5" y="-1.5"/>
      <point x="30" y="-45.5"/>
      <point x="30" y="-77.5" type="curve" smooth="yes"/>
      <point x="30" y="-135.5"/>
      <point x="86.5" y="-169"/>
    </contour>
    <contour>
      <point x="183.5" y="190.5" type="curve" smooth="yes"/>
      <point x="149.5" y="190.5"/>
      <point x="128.5" y="246"/>
      <point x="128.5" y="308.5" type="curve" smooth="yes"/>
      <point x="128.5" y="371"/>
      <point x="149.5" y="425"/>
      <point x="183.5" y="425" type="curve" smooth="yes"/>
      <point x="217.5" y="425"/>
      <point x="238.5" y="371"/>
      <point x="238.5" y="308.5" type="curve" smooth="yes"/>
      <point x="238.5" y="246"/>
      <point x="217.5" y="190.5"/>
    </contour>
    <contour>
      <point x="366" y="415" type="line"/>
      <point x="366" y="505" type="line"/>
      <point x="235" y="496.5" type="line"/>
      <point x="235" y="466.5" type="line"/>
    </contour>
    <contour>
      <point x="187.5" y="547.5" type="curve" smooth="yes"/>
      <point x="222.5" y="547.5"/>
      <point x="250" y="575"/>
      <point x="250" y="610" type="curve" smooth="yes"/>
      <point x="250" y="645"/>
      <point x="222.5" y="672.5"/>
      <point x="187.5" y="672.5" type="curve" smooth="yes"/>
      <point x="152.5" y="672.5"/>
      <point x="125" y="645"/>
      <point x="125" y="610" type="curve" smooth="yes"/>
      <point x="125" y="575"/>
      <point x="152.5" y="547.5"/>
    </contour>
  </outline>
</glyph>
<glyph name="dotlessi" format="2">
  <advance width="176"/>
  <unicode hex="0131"/>
  <anchor x="88" y="0" name="bottom"/>
  <anchor x="138" y="0" name="ogonek"/>
  <anchor x="88" y="500" name="top"/>
  <outline>
    <contour>
      <point x="38" y="0" type="line"/>
      <point x="138" y="0" type="line"/>
      <point x="138" y="500" type="line"/>
      <point x="38" y="500" type="line"/>
    </contour>
  </outline>
</glyph>
<glyph name="IJ" format="2">
  <advance width="365"/>
  <unicode hex="0132"/>
  <guideline x="314" y="-10" angle="0"/>
  <guideline x="307" y="90" angle="0"/>
  <outline>
    <contour>
      <point x="189" y="-5" type="curve" smooth="yes"/>
      <point x="259.5" y="-5"/>
      <point x="329" y="39"/>
      <point x="329" y="190" type="curve" smooth="yes"/>
      <point x="329" y="700" type="line"/>
      <point x="224" y="700" type="line"/>
      <point x="224" y="200" type="line" smooth="yes"/>
      <point x="224" y="119.5"/>
      <point x="214.5" y="90"/>
      <point x="185" y="90" type="curve" smooth="yes"/>
      <point x="155.5" y="90"/>
      <point x="145" y="119.5"/>
      <point x="145" y="200" type="curve"/>
      <point x="145" y="252" type="line"/>
      <point x="40" y="242" type="line"/>
      <point x="40" y="200" type="line"/>
      <point x="40" y="36"/>
      <point x="121.5" y="-5"/>
    </contour>
    <contour>
      <point x="40" y="302" type="line"/>
      <point x="145" y="302" type="line"/>
      <point x="145" y="700" type="line"/>
      <point x="40" y="700" type="line"/>
    </contour>
  </outline>
</glyph>
<glyph name="Lslash" format="2">
  <advance width="322"/>
  <unicode hex="0141"/>
  <guideline x="629" y="248.5" angle="0"/>
  <outline>
    <contour>
      <point x="27.5" y="248.5" type="line"/>
      <point x="280.5" y="427" type="line"/>
      <point x="253.5" y="463.5" type="line"/>
      <point x="0" y="285.5" type="line"/>
    </contour>
    <component base="L" xOffset="30"/>
  </outline>
</glyph>
<glyph name="lslash" format="2">
  <advance width="250"/>
  <unicode hex="0142"/>
  <outline>
    <contour>
      <point x="33.5" y="248.5" type="line"/>
      <point x="244" y="397" type="line"/>
      <point x="217" y="433.5" type="line"/>
      <point x="6" y="285.5" type="line"/>
    </contour>
    <component base="l" xOffset="36"/>
  </outline>
</glyph>
<glyph name="Eng" format="2">
  <advance width="440"/>
  <unicode hex="014A"/>
  <unicode hex="014B"/>
  <outline>
    <contour>
      <point x="271.5" y="-205" type="curve" smooth="yes"/>
      <point x="342.5" y="-205"/>
      <point x="400" y="-163.5"/>
      <point x="400" y="-80.5" type="curve" smooth="yes"/>
      <point x="400" y="50" type="line"/>
      <point x="310" y="50" type="line"/>
      <point x="310" y="-47" type="line" smooth="yes"/>
      <point x="310" y="-114.5"/>
      <point x="277" y="-133.5"/>
      <point x="212" y="-104" type="curve"/>
      <point x="188" y="-185" type="line"/>
      <point x="219.5" y="-198.5"/>
      <point x="243.5" y="-205"/>
    </contour>
    <component base="N"/>
  </outline>
</glyph>
<glyph name="OE" format="2">
  <advance width="541"/>
  <unicode hex="0152"/>
  <outline>
    <contour>
      <point x="201" y="-10" type="curve"/>
      <point x="201" y="90" type="line"/>
      <point x="169.5" y="90"/>
      <point x="136" y="142"/>
      <point x="136" y="350" type="curve" smooth="yes"/>
      <point x="136" y="558"/>
      <point x="169.5" y="610"/>
      <point x="201" y="610" type="curve"/>
      <point x="201" y="710" type="line"/>
      <point x="105" y="710"/>
      <point x="26" y="623.5"/>
      <point x="26" y="350" type="curve" smooth="yes"/>
      <point x="26" y="76.5"/>
      <point x="105" y="-10"/>
    </contour>
    <contour>
      <point x="336" y="0" type="line"/>
      <point x="521" y="0" type="line"/>
      <point x="521" y="90" type="line"/>
      <point x="336" y="90" type="line"/>
    </contour>
    <contour>
      <point x="201" y="90" type="curve"/>
      <point x="201" y="-10" type="line"/>
      <point x="304" y="-10"/>
      <point x="336.5" y="86.5"/>
      <point x="336.5" y="350" type="curve" smooth="yes"/>
      <point x="336.5" y="613.5"/>
      <point x="304" y="710"/>
      <point x="201" y="710" type="curve"/>
      <point x="201" y="610" type="line"/>
      <point x="242.5" y="610"/>
      <point x="276" y="558"/>
      <point x="276" y="350" type="curve" smooth="yes"/>
      <point x="276" y="142"/>
      <point x="242.5" y="90"/>
    </contour>
    <contour>
      <point x="306" y="0" type="line"/>
      <point x="386" y="0" type="line"/>
      <point x="386" y="700" type="line"/>
      <point x="306" y="700" type="line"/>
    </contour>
    <contour>
      <point x="336" y="328" type="line"/>
      <point x="496" y="328" type="line"/>
      <point x="496" y="418" type="line"/>
      <point x="336" y="418" type="line"/>
    </contour>
    <contour>
      <point x="336" y="610" type="line"/>
      <point x="521" y="610" type="line"/>
      <point x="521" y="700" type="line"/>
      <point x="336" y="700" type="line"/>
    </contour>
  </outline>
</glyph>
<glyph name="oe" format="2">
  <advance width="540"/>
  <unicode hex="0153"/>
  <outline>
    <contour>
      <point x="177" y="-5" type="curve" smooth="yes"/>
      <point x="274.5" y="-5"/>
      <point x="312" y="80.5"/>
      <point x="312" y="250" type="curve" smooth="yes"/>
      <point x="312" y="418.5"/>
      <point x="274.5" y="505"/>
      <point x="177" y="505" type="curve" smooth="yes"/>
      <point x="79.5" y="505"/>
      <point x="22" y="419"/>
      <point x="22" y="250" type="curve" smooth="yes"/>
      <point x="22" y="81"/>
      <point x="79.5" y="-5"/>
    </contour>
    <contour>
      <point x="177" y="75" type="curve" smooth="yes"/>
      <point x="141" y="75"/>
      <point x="125" y="122"/>
      <point x="125" y="250" type="curve" smooth="yes"/>
      <point x="125" y="378"/>
      <point x="141" y="425"/>
      <point x="177" y="425" type="curve" smooth="yes"/>
      <point x="213" y="425"/>
      <point x="229" y="377.5"/>
      <point x="229" y="249.5" type="curve" smooth="yes"/>
      <point x="229" y="121.5"/>
      <point x="213" y="75"/>
    </contour>
    <contour>
      <point x="371" y="-5" type="curve" smooth="yes"/>
      <point x="445.5" y="-5"/>
      <point x="504" y="50.5"/>
      <point x="513" y="165.5" type="curve"/>
      <point x="417" y="170.5" type="line"/>
      <point x="411.5" y="100"/>
      <point x="400" y="75"/>
      <point x="371" y="75" type="curve" smooth="yes"/>
      <point x="330" y="75"/>
      <point x="317" y="124.5"/>
      <point x="317" y="250" type="curve" smooth="yes"/>
      <point x="317" y="375.5"/>
      <point x="330" y="425"/>
      <point x="371" y="425" type="curve" smooth="yes"/>
      <point x="401" y="425"/>
      <point x="423" y="398.5"/>
      <point x="423" y="286" type="curve"/>
      <point x="518" y="228" type="line"/>
      <point x="518" y="264" type="line" smooth="yes"/>
      <point x="518" y="422.5"/>
      <point x="462" y="505"/>
      <point x="371" y="505" type="curve" smooth="yes"/>
      <point x="275.5" y="505"/>
      <point x="234" y="413.5"/>
      <point x="234" y="250" type="curve" smooth="yes"/>
      <point x="234" y="86.5"/>
      <point x="276" y="-5"/>
    </contour>
    <contour>
      <point x="293" y="228" type="line"/>
      <point x="518" y="228" type="line"/>
      <point x="498" y="293" type="line"/>
      <point x="293" y="293" type="line"/>
    </contour>
  </outline>
</glyph>
<glyph name="uni018F" format="2">
  <advance width="404"/>
  <unicode hex="018F"/>
  <outline>
    <contour>
      <point x="198" y="-10" type="curve" smooth="yes"/>
      <point x="304" y="-10"/>
      <point x="378" y="76.5"/>
      <point x="378" y="350" type="curve" smooth="yes"/>
      <point x="378" y="623.5"/>
      <point x="299" y="710"/>
      <point x="193" y="710" type="curve"/>
      <point x="193" y="610" type="line"/>
      <point x="234.5" y="610"/>
      <point x="268" y="558"/>
      <point x="268" y="350" type="curve" smooth="yes"/>
      <point x="268" y="142"/>
      <point x="234.5" y="90"/>
      <point x="193" y="90" type="curve" smooth="yes"/>
      <point x="152.5" y="90"/>
      <point x="120" y="139.5"/>
      <point x="120" y="336.5" type="curve"/>
      <point x="31" y="325.5" type="line"/>
      <point x="31" y="48.5"/>
      <point x="110.5" y="-10"/>
    </contour>
    <contour>
      <point x="70.5" y="285" type="line"/>
      <point x="302.5" y="285" type="line"/>
      <point x="302.5" y="375" type="line"/>
      <point x="31" y="375" type="line"/>
      <point x="31" y="325.5" type="line"/>
    </contour>
    <contour>
      <point x="26" y="490.5" type="curve"/>
      <point x="136" y="465.5" type="line"/>
      <point x="147" y="580"/>
      <point x="160.5" y="610"/>
      <point x="193" y="610" type="curve"/>
      <point x="193" y="710" type="line"/>
      <point x="108" y="710"/>
      <point x="50.5" y="654"/>
    </contour>
  </outline>
</glyph>
<glyph name="uni0237" format="2">
  <advance width="178"/>
  <unicode hex="0237"/>
  <anchor x="83" y="-200" name="bottom"/>
  <anchor x="90" y="500" name="top"/>
  <outline>
    <contour>
      <point x="1.5" y="-220" type="curve" smooth="yes"/>
      <point x="72.5" y="-220"/>
      <point x="140" y="-178.5"/>
      <point x="140" y="-95.5" type="curve" smooth="yes"/>
      <point x="140" y="500" type="line"/>
      <point x="40" y="500" type="line"/>
      <point x="40" y="-64.5" type="line" smooth="yes"/>
      <point x="40" y="-111.5"/>
      <point x="24" y="-135"/>
      <point x="-7.5" y="-135" type="curve" smooth="yes"/>
      <point x="-21.5" y="-135"/>
      <point x="-38" y="-130.5"/>
      <point x="-58.5" y="-121.5" type="curve"/>
      <point x="-82" y="-200" type="line"/>
      <point x="-50.5" y="-213.5"/>
      <point x="-26.5" y="-220"/>
    </contour>
  </outline>
</glyph>
<glyph name="gravecomb" format="2">
  <advance width="0"/>
  <unicode hex="0300"/>
  <anchor x="119" y="700" name="_top"/>
  <anchor x="93.5" y="849" name="top"/>
  <outline>
    <contour>
      <point x="81" y="749" type="line"/>
      <point x="151" y="749" type="line"/>
      <point x="93.5" y="849" type="line"/>
      <point x="3.5" y="849" type="line"/>
    </contour>
  </outline>
</glyph>
<glyph name="acutecomb" format="2">
  <advance width="0"/>
  <unicode hex="0301"/>
  <anchor x="52" y="700" name="_top"/>
  <anchor x="72.5" y="849" name="top"/>
  <outline>
    <contour>
      <point x="20" y="749" type="line"/>
      <point x="90" y="749" type="line"/>
      <point x="162.5" y="849" type="line"/>
      <point x="72.5" y="849" type="line"/>
    </contour>
  </outline>
</glyph>
<glyph name="uni0302" format="2">
  <advance width="0"/>
  <unicode hex="0302"/>
  <guideline x="160" y="749" angle="0"/>
  <anchor x="123" y="700" name="_top"/>
  <anchor x="123" y="859" name="top"/>
  <outline>
    <contour>
      <point x="10" y="749" type="line"/>
      <point x="67.5" y="749" type="line"/>
      <point x="123.5" y="803" type="line"/>
      <point x="179.5" y="749" type="line"/>
      <point x="237" y="749" type="line"/>
      <point x="144" y="859" type="line"/>
      <point x="103" y="859" type="line"/>
    </contour>
  </outline>
</glyph>
<glyph name="tildecomb" format="2">
  <advance width="0"/>
  <unicode hex="0303"/>
  <guideline x="160" y="749" angle="0"/>
  <anchor x="158" y="700" name="_top"/>
  <anchor x="158" y="845.5" name="top"/>
  <outline>
    <contour>
      <point x="16" y="780.5" type="curve"/>
      <point x="59" y="742" type="line"/>
      <point x="78.5" y="764"/>
      <point x="93" y="775"/>
      <point x="110.5" y="775" type="curve" smooth="yes"/>
      <point x="123" y="775"/>
      <point x="137" y="769.5"/>
      <point x="155.5" y="759" type="curve" smooth="yes"/>
      <point x="174" y="749"/>
      <point x="190.5" y="744"/>
      <point x="205.5" y="744" type="curve" smooth="yes"/>
      <point x="239.5" y="744"/>
      <point x="267" y="767"/>
      <point x="299.5" y="801" type="curve"/>
      <point x="257.5" y="839.5" type="line"/>
      <point x="237.5" y="817"/>
      <point x="222.5" y="807"/>
      <point x="205.5" y="807" type="curve" smooth="yes"/>
      <point x="194" y="807"/>
      <point x="182" y="811.5"/>
      <point x="167" y="819.5" type="curve" smooth="yes"/>
      <point x="145" y="831.5"/>
      <point x="126.5" y="837"/>
      <point x="109.5" y="837" type="curve" smooth="yes"/>
      <point x="78" y="837"/>
      <point x="51.5" y="817.5"/>
    </contour>
  </outline>
</glyph>
<glyph name="uni0304" format="2">
  <advance width="0"/>
  <unicode hex="0304"/>
  <guideline x="150" y="749" angle="0"/>
  <anchor x="151" y="700" name="_top"/>
  <anchor x="151" y="794" name="top"/>
  <outline>
    <contour>
      <point x="36" y="749" type="line"/>
      <point x="266" y="749" type="line"/>
      <point x="266" y="794" type="line"/>
      <point x="36" y="794" type="line"/>
    </contour>
  </outline>
</glyph>
<glyph name="uni0306" format="2">
  <advance width="0"/>
  <unicode hex="0306"/>
  <guideline x="160" y="749" angle="0"/>
  <guideline x="208.5" y="859" angle="180"/>
  <anchor x="129.5" y="700" name="_top"/>
  <outline>
    <contour>
      <point x="130" y="744" type="curve" smooth="yes"/>
      <point x="194.5" y="744"/>
      <point x="240" y="791.5"/>
      <point x="240" y="859" type="curve"/>
      <point x="176" y="859" type="line"/>
      <point x="176" y="821"/>
      <point x="156" y="796.5"/>
      <point x="130" y="796.5" type="curve" smooth="yes"/>
      <point x="104" y="796.5"/>
      <point x="84" y="821"/>
      <point x="84" y="859" type="curve"/>
      <point x="20" y="859" type="line"/>
      <point x="20" y="791.5"/>
      <point x="65.5" y="744"/>
    </contour>
  </outline>
</glyph>
<glyph name="uni0307" format="2">
  <advance width="0"/>
  <unicode hex="0307"/>
  <guideline x="160" y="749" angle="0"/>
  <anchor x="78.5" y="700" name="_top"/>
  <outline>
    <contour>
      <point x="78.5" y="744" type="curve" smooth="yes"/>
      <point x="113.5" y="744"/>
      <point x="141" y="771.5"/>
      <point x="141" y="806.5" type="curve" smooth="yes"/>
      <point x="141" y="841.5"/>
      <point x="113.5" y="869"/>
      <point x="78.5" y="869" type="curve" smooth="yes"/>
      <point x="43.5" y="869"/>
      <point x="16" y="841.5"/>
      <point x="16" y="806.5" type="curve" smooth="yes"/>
      <point x="16" y="771.5"/>
      <point x="43.5" y="744"/>
    </contour>
  </outline>
</glyph>
<glyph name="uni030A" format="2">
  <advance width="0"/>
  <unicode hex="030A"/>
  <guideline x="160" y="749" angle="0"/>
  <anchor x="97.5" y="699.5" name="_top"/>
  <anchor x="97" y="898.5" name="top"/>
  <outline>
    <contour>
      <point x="97" y="744" type="curve" smooth="yes"/>
      <point x="139.5" y="744"/>
      <point x="174.5" y="778.5"/>
      <point x="174.5" y="821" type="curve" smooth="yes"/>
      <point x="174.5" y="863.5"/>
      <point x="139.5" y="898.5"/>
      <point x="97" y="898.5" type="curve" smooth="yes"/>
      <point x="55" y="898.5"/>
      <point x="20" y="863.5"/>
      <point x="20" y="821" type="curve" smooth="yes"/>
      <point x="20" y="778.5"/>
      <point x="55" y="744"/>
    </contour>
    <contour>
      <point x="97" y="790.5" type="curve" smooth="yes"/>
      <point x="80" y="790.5"/>
      <point x="66.5" y="804"/>
      <point x="66.5" y="821" type="curve" smooth="yes"/>
      <point x="66.5" y="837.5"/>
      <point x="80" y="852"/>
      <point x="97" y="852" type="curve" smooth="yes"/>
      <point x="113.5" y="852"/>
      <point x="128" y="837.5"/>
      <point x="128" y="821" type="curve" smooth="yes"/>
      <point x="128" y="804"/>
      <point x="113.5" y="790.5"/>
    </contour>
  </outline>
</glyph>
<glyph name="uni030B" format="2">
  <advance width="0"/>
  <unicode hex="030B"/>
  <guideline x="160" y="749" angle="0"/>
  <anchor x="73.5" y="700" name="_top"/>
  <anchor x="93.5" y="880.5" name="top"/>
  <outline>
    <contour>
      <point x="105" y="749" type="line"/>
      <point x="139" y="749" type="line"/>
      <point x="176.5" y="880.5" type="line"/>
      <point x="114.5" y="880.5" type="line"/>
    </contour>
    <contour>
      <point x="10" y="749" type="line"/>
      <point x="44" y="749" type="line"/>
      <point x="81.5" y="880.5" type="line"/>
      <point x="19.5" y="880.5" type="line"/>
    </contour>
  </outline>
</glyph>
<glyph name="uni0312" format="2">
  <advance width="0"/>
  <unicode hex="0312"/>
  <anchor x="73" y="700" name="_top"/>
  <anchor x="81" y="865" name="top"/>
  <outline>
    <contour>
      <point x="113.5" y="739" type="line"/>
      <point x="125.5" y="859" type="line"/>
      <point x="81" y="865" type="line"/>
      <point x="41.5" y="749.5" type="line"/>
    </contour>
  </outline>
</glyph>
<glyph name="uni0326" format="2">
  <advance width="0"/>
  <unicode hex="0326"/>
  <anchor x="73" y="0" name="_bottom"/>
  <anchor x="64.5" y="-165" name="bottom"/>
  <outline>
    <contour>
      <point x="64.5" y="-170" type="line"/>
      <point x="104" y="-54.5" type="line"/>
      <point x="32" y="-44" type="line"/>
      <point x="20" y="-164" type="line"/>
    </contour>
  </outline>
</glyph>
<glyph name="uni0327" format="2">
  <advance width="0"/>
  <unicode hex="0327"/>
  <anchor x="114" y="0" name="_bottom"/>
  <anchor x="99" y="-119" name="bottom"/>
  <outline>
    <contour>
      <point x="40" y="-119" type="line"/>
      <point x="124" y="-119" type="line"/>
      <point x="145" y="11" type="line"/>
      <point x="86" y="11" type="line"/>
    </contour>
  </outline>
</glyph>
<glyph name="uni0328" format="2">
  <advance width="0"/>
  <unicode hex="0328"/>
  <anchor x="101" y="0" name="_ogonek"/>
  <outline>
    <contour>
      <point x="93.5" y="-108" type="curve" smooth="yes"/>
      <point x="118" y="-108"/>
      <point x="146.5" y="-94"/>
      <point x="172" y="-58.5" type="curve"/>
      <point x="133.5" y="-33" type="line"/>
      <point x="121.5" y="-50.5"/>
      <point x="109.5" y="-58.5"/>
      <point x="100" y="-58.5" type="curve" smooth="yes"/>
      <point x="92" y="-58.5"/>
      <point x="86" y="-52"/>
      <point x="86" y="-40.5" type="curve" smooth="yes"/>
      <point x="86" y="-30.5"/>
      <point x="90.5" y="-16.5"/>
      <point x="101" y="0" type="curve"/>
      <point x="79" y="18.5" type="line"/>
      <point x="51" y="-7"/>
      <point x="40" y="-33"/>
      <point x="40" y="-54.5" type="curve" smooth="yes"/>
      <point x="40" y="-85.5"/>
      <point x="63" y="-108"/>
    </contour>
  </outline>
</glyph>
<glyph name="uni1E9E" format="2">
  <advance width="430"/>
  <unicode hex="1E9E"/>
  <outline>
    <contour>
      <point x="186" y="0" type="line"/>
      <point x="225" y="0" type="line" smooth="yes"/>
      <point x="314.5" y="0"/>
      <point x="400" y="79"/>
      <point x="400" y="223" type="curve" smooth="yes"/>
      <point x="400" y="377.5"/>
      <point x="303" y="406"/>
      <point x="202" y="406" type="curve"/>
      <point x="186" y="357" type="line"/>
      <point x="193" y="357" type="line" smooth="yes"/>
      <point x="264" y="357"/>
      <point x="298" y="322.5"/>
      <point x="298" y="233.5" type="curve" smooth="yes"/>
      <point x="298" y="154.5"/>
      <point x="269.5" y="100"/>
      <point x="208" y="100" type="curve" smooth="yes"/>
      <point x="186" y="100" type="line"/>
    </contour>
    <contour>
      <point x="36" y="0" type="line"/>
      <point x="136" y="0" type="line"/>
      <point x="136" y="700" type="line"/>
      <point x="36" y="700" type="line"/>
    </contour>
    <contour>
      <point x="186" y="357" type="line"/>
      <point x="275.5" y="357" type="line"/>
      <point x="392" y="700" type="line"/>
      <point x="280.5" y="700" type="line"/>
    </contour>
    <contour>
      <point x="71" y="610" type="line"/>
      <point x="328" y="610" type="line"/>
      <point x="328" y="700" type="line"/>
      <point x="71" y="700" type="line"/>
    </contour>
  </outline>
</glyph>
<glyph name="quoteright" format="2">
  <advance width="152"/>
  <unicode hex="2019"/>
  <outline>
    <contour>
      <point x="26" y="464" type="curve"/>
      <point x="70.5" y="458" type="line"/>
      <point x="107.5" y="537"/>
      <point x="129" y="626"/>
      <point x="136" y="700" type="curve"/>
      <point x="46" y="706" type="line"/>
      <point x="49" y="629"/>
      <point x="46" y="559"/>
    </contour>
  </outline>
</glyph>
<glyph name="dagger" format="2">
  <advance width="282"/>
  <unicode hex="2020"/>
  <outline>
    <contour>
      <point x="129.5" y="275" type="line"/>
      <point x="153.5" y="275" type="line"/>
      <point x="179.5" y="475" type="line"/>
      <point x="103.5" y="475" type="line"/>
    </contour>
    <contour>
      <point x="16" y="537.5" type="line"/>
      <point x="141" y="563.5" type="line"/>
      <point x="141" y="587.5" type="line"/>
      <point x="16" y="613.5" type="line"/>
    </contour>
    <contour>
      <point x="103.5" y="475" type="line"/>
      <point x="179.5" y="475" type="line"/>
      <point x="153.5" y="575" type="line"/>
      <point x="129.5" y="575" type="line"/>
    </contour>
    <contour>
      <point x="129.5" y="575" type="line"/>
      <point x="153.5" y="575" type="line"/>
      <point x="179.5" y="700" type="line"/>
      <point x="103.5" y="700" type="line"/>
    </contour>
    <contour>
      <point x="266" y="537.5" type="line"/>
      <point x="266" y="613.5" type="line"/>
      <point x="141" y="587.5" type="line"/>
      <point x="141" y="563.5" type="line"/>
    </contour>
  </outline>
</glyph>
<glyph name="guilsinglleft" format="2">
  <advance width="165"/>
  <unicode hex="2039"/>
  <outline>
    <contour>
      <point x="15" y="289" type="line"/>
      <point x="80.5" y="289" type="line"/>
      <point x="140" y="394.5" type="line"/>
      <point x="84" y="415" type="line"/>
    </contour>
    <contour>
      <point x="84" y="163" type="line"/>
      <point x="140" y="183.5" type="line"/>
      <point x="80.5" y="289" type="line"/>
      <point x="15" y="289" type="line"/>
    </contour>
  </outline>
</glyph>
<glyph name="guilsinglright" format="2">
  <advance width="165"/>
  <unicode hex="203A"/>
  <outline>
    <contour>
      <point x="150" y="289" type="line"/>
      <point x="81" y="415" type="line"/>
      <point x="25" y="394.5" type="line"/>
      <point x="84.5" y="289" type="line"/>
    </contour>
    <contour>
      <point x="81" y="163" type="line"/>
      <point x="150" y="289" type="line"/>
      <point x="84.5" y="289" type="line"/>
      <point x="25" y="183.5" type="line"/>
    </contour>
  </outline>
</glyph>
<glyph name="uni2055" format="2">
  <advance width="550.5"/>
  <unicode hex="2055"/>
  <guideline x="275.5" y="230.5" angle="90"/>
  <guideline x="290.5" y="230.5" angle="0"/>
  <outline>
    <contour>
      <point x="435.5" y="83.5" type="curve"/>
      <point x="438" y="96.5"/>
      <point x="439" y="109"/>
      <point x="439" y="121.5" type="curve" smooth="yes"/>
      <point x="439" y="181.5"/>
      <point x="408" y="257.5"/>
      <point x="354.5" y="257.5" type="curve" smooth="yes"/>
      <point x="326" y="257.5"/>
      <point x="293" y="230.5"/>
      <point x="293" y="198.5" type="curve" smooth="yes"/>
      <point x="293" y="144.5"/>
      <point x="370.5" y="92"/>
    </contour>
    <contour>
      <point x="115" y="83.5" type="curve"/>
      <point x="180.5" y="92.5"/>
      <point x="258" y="142"/>
      <point x="258" y="198.5" type="curve" smooth="yes"/>
      <point x="258" y="231"/>
      <point x="224.5" y="257.5"/>
      <point x="197" y="257.5" type="curve" smooth="yes"/>
      <point x="141.5" y="257.5"/>
      <point x="112" y="174"/>
      <point x="112" y="118.5" type="curve" smooth="yes"/>
      <point x="112" y="107"/>
      <point x="113" y="95.5"/>
    </contour>
    <contour>
      <point x="150" y="285" type="curve" smooth="yes"/>
      <point x="194.5" y="285"/>
      <point x="209" y="323"/>
      <point x="209" y="348" type="curve" smooth="yes"/>
      <point x="209" y="396"/>
      <point x="154" y="412.5"/>
      <point x="111.5" y="412.5" type="curve" smooth="yes"/>
      <point x="81" y="412.5"/>
      <point x="47" y="405"/>
      <point x="16" y="388.5" type="curve"/>
      <point x="46.5" y="326"/>
      <point x="104" y="285"/>
    </contour>
    <contour>
      <point x="275.5" y="254" type="curve" smooth="yes"/>
      <point x="304" y="254"/>
      <point x="327.5" y="277.5"/>
      <point x="327.5" y="306.5" type="curve" smooth="yes"/>
      <point x="327.5" y="335"/>
      <point x="304" y="358.5"/>
      <point x="275.5" y="358.5" type="curve" smooth="yes"/>
      <point x="246.5" y="358.5"/>
      <point x="223" y="335"/>
      <point x="223" y="306.5" type="curve" smooth="yes"/>
      <point x="223" y="277.5"/>
      <point x="246.5" y="254"/>
    </contour>
    <contour>
      <point x="272.5" y="378" type="curve" smooth="yes"/>
      <point x="315.5" y="378"/>
      <point x="336" y="405.5"/>
      <point x="336" y="444.5" type="curve" smooth="yes"/>
      <point x="336" y="486.5"/>
      <point x="315.5" y="538.5"/>
      <point x="275.5" y="576.5" type="curve"/>
      <point x="235.5" y="538"/>
      <point x="214.5" y="487"/>
      <point x="214" y="446" type="curve" smooth="yes"/>
      <point x="215" y="408"/>
      <point x="233" y="378"/>
    </contour>
    <contour>
      <point x="400.5" y="285" type="curve" smooth="yes"/>
      <point x="447" y="285"/>
      <point x="505" y="327"/>
      <point x="534.5" y="388" type="curve"/>
      <point x="503" y="405"/>
      <point x="469.5" y="413"/>
      <point x="438.5" y="413" type="curve" smooth="yes"/>
      <point x="399" y="413"/>
      <point x="341.5" y="397"/>
      <point x="341.5" y="348.5" type="curve" smooth="yes"/>
      <point x="341.5" y="321.5"/>
      <point x="359" y="285"/>
    </contour>
  </outline>
</glyph>
<glyph name="Euro" format="2">
  <advance width="381"/>
  <unicode hex="20AC"/>
  <outline>
    <contour>
      <point x="71" y="350" type="curve"/>
      <point x="181" y="350" type="line"/>
      <point x="181" y="506"/>
      <point x="228.5" y="608"/>
      <point x="351" y="608" type="curve"/>
      <point x="351" y="708" type="line"/>
      <point x="155.5" y="708"/>
      <point x="71" y="572.5"/>
    </contour>
    <contour>
      <point x="351" y="-8" type="curve"/>
      <point x="351" y="92" type="line"/>
      <point x="228.5" y="92"/>
      <point x="181" y="194"/>
      <point x="181" y="350" type="curve"/>
      <point x="71" y="350" type="line"/>
      <point x="71" y="127.5"/>
      <point x="155.5" y="-8"/>
    </contour>
    <contour>
      <point x="26" y="280" type="line"/>
      <point x="314" y="280" type="line"/>
      <point x="314" y="325" type="line"/>
      <point x="26" y="325" type="line"/>
    </contour>
    <contour>
      <point x="26" y="375" type="line"/>
      <point x="314" y="375" type="line"/>
      <point x="314" y="420" type="line"/>
      <point x="26" y="420" type="line"/>
    </contour>
  </outline>
</glyph>
<glyph name="uniA746" format="2">
  <advance width="392"/>
  <unicode hex="A746"/>
  <unicode hex="A747"/>
  <outline>
    <contour>
      <point x="141" y="0" type="line"/>
      <point x="246" y="0" type="line"/>
      <point x="246" y="425.5" type="line"/>
      <point x="141" y="425.5" type="line"/>
      <point x="141" y="700" type="line"/>
      <point x="36" y="700" type="line"/>
      <point x="36" y="390.5" type="line"/>
      <point x="141" y="390.5" type="line"/>
    </contour>
    <contour>
      <point x="191" y="0" type="line"/>
      <point x="376" y="0" type="line"/>
      <point x="376" y="90" type="line"/>
      <point x="191" y="90" type="line"/>
    </contour>
  </outline>
</glyph>
<glyph name=".notdef" format="2">
  <advance width="800"/>
  <outline>
    <contour>
      <point x="400" y="-24" type="curve" smooth="yes"/>
      <point x="606" y="-24"/>
      <point x="774" y="143"/>
      <point x="774" y="350" type="curve" smooth="yes"/>
      <point x="774" y="556"/>
      <point x="606" y="724"/>
      <point x="400" y="724" type="curve" smooth="yes"/>
      <point x="193" y="724"/>
      <point x="26" y="556"/>
      <point x="26" y="350" type="curve" smooth="yes"/>
      <point x="26" y="143"/>
      <point x="193" y="-24"/>
    </contour>
    <contour>
      <point x="400" y="113.5" type="curve" smooth="yes"/>
      <point x="312" y="113.5"/>
      <point x="219" y="173.5"/>
      <point x="219" y="263.5" type="curve" smooth="yes"/>
      <point x="219" y="287.5"/>
      <point x="234.5" y="300.5"/>
      <point x="252.5" y="300.5" type="curve" smooth="yes"/>
      <point x="268" y="300.5"/>
      <point x="285.5" y="290.5"/>
      <point x="296" y="268.5" type="curve" smooth="yes"/>
      <point x="302" y="256"/>
      <point x="327" y="201"/>
      <point x="400" y="201" type="curve" smooth="yes"/>
      <point x="473" y="201"/>
      <point x="498" y="256"/>
      <point x="504" y="268.5" type="curve" smooth="yes"/>
      <point x="514.5" y="290.5"/>
      <point x="532" y="300.5"/>
      <point x="547.5" y="300.5" type="curve" smooth="yes"/>
      <point x="565.5" y="300.5"/>
      <point x="581" y="287.5"/>
      <point x="581" y="263.5" type="curve" smooth="yes"/>
      <point x="581" y="175"/>
      <point x="490.5" y="113.5"/>
    </contour>
    <contour>
      <point x="400" y="271.5" type="curve" smooth="yes"/>
      <point x="376.5" y="271.5"/>
      <point x="354.5" y="281.5"/>
      <point x="355" y="304.5" type="curve" smooth="yes"/>
      <point x="357" y="464.5" type="line"/>
      <point x="342" y="464"/>
      <point x="325" y="463"/>
      <point x="305" y="463" type="curve" smooth="yes"/>
      <point x="224.5" y="463"/>
      <point x="212.5" y="477"/>
      <point x="212.5" y="497.5" type="curve" smooth="yes"/>
      <point x="212.5" y="517"/>
      <point x="219" y="541"/>
      <point x="252" y="546" type="curve" smooth="yes"/>
      <point x="278.5" y="550"/>
      <point x="344.5" y="552"/>
      <point x="400" y="552" type="curve" smooth="yes"/>
      <point x="455.5" y="552"/>
      <point x="521.5" y="550.5"/>
      <point x="548" y="546" type="curve" smooth="yes"/>
      <point x="581" y="540.5"/>
      <point x="587.5" y="517"/>
      <point x="587.5" y="497.5" type="curve" smooth="yes"/>
      <point x="587.5" y="477"/>
      <point x="575.5" y="463"/>
      <point x="495" y="463" type="curve" smooth="yes"/>
      <point x="475" y="463"/>
      <point x="458" y="464"/>
      <point x="443" y="464.5" type="curve"/>
      <point x="445" y="304.5" type="line" smooth="yes"/>
      <point x="445.5" y="281.5"/>
      <point x="423.5" y="271.5"/>
    </contour>
    <contour>
      <point x="273" y="335" type="curve" smooth="yes"/>
      <point x="251" y="335"/>
      <point x="236" y="346"/>
      <point x="236" y="370" type="curve" smooth="yes"/>
      <point x="236" y="389.5"/>
      <point x="251" y="407"/>
      <point x="273" y="407" type="curve" smooth="yes"/>
      <point x="296" y="407"/>
      <point x="307.5" y="389.5"/>
      <point x="307.5" y="370" type="curve" smooth="yes"/>
      <point x="307.5" y="346"/>
      <point x="296" y="335"/>
    </contour>
    <contour>
      <point x="527" y="335" type="curve" smooth="yes"/>
      <point x="504" y="335"/>
      <point x="492.5" y="346"/>
      <point x="492.5" y="370" type="curve" smooth="yes"/>
      <point x="492.5" y="389.5"/>
      <point x="504" y="407"/>
      <point x="527" y="407" type="curve" smooth="yes"/>
      <point x="549" y="407"/>
      <point x="564" y="389.5"/>
      <point x="564" y="370" type="curve" smooth="yes"/>
      <point x="564" y="346"/>
      <point x="549" y="335"/>
    </contour>
  </outline>
</glyph>
<glyph name="_part.bowl" format="2">
  <advance width="363"/>
  <outline>
    <contour>
      <point x="218.5" y="505" type="curve" smooth="yes"/>
      <point x="142.5" y="505"/>
      <point x="109.5" y="440"/>
      <point x="111" y="315" type="curve"/>
      <point x="138" y="295" type="line"/>
      <point x="138" y="380.5"/>
      <point x="152.5" y="425"/>
      <point x="189" y="425" type="curve" smooth="yes"/>
      <point x="219" y="425"/>
      <point x="238" y="395"/>
      <point x="238" y="261" type="curve" smooth="yes"/>
      <point x="238" y="129"/>
      <point x="220.5" y="75"/>
      <point x="191" y="75" type="curve" smooth="yes"/>
      <point x="166" y="75"/>
      <point x="138" y="114"/>
      <point x="138" y="179" type="curve"/>
      <point x="111" y="159" type="line"/>
      <point x="111" y="55"/>
      <point x="162.5" y="-5"/>
      <point x="221" y="-5" type="curve" smooth="yes"/>
      <point x="300.5" y="-5"/>
      <point x="340.5" y="107.5"/>
      <point x="341" y="266" type="curve" smooth="yes"/>
      <point x="341.5" y="437.5"/>
      <point x="296" y="505"/>
    </contour>
  </outline>
</glyph>
<glyph name="_part.descender" format="2">
  <advance width="363"/>
  <outline>
    <contour>
      <point x="38" y="-200" type="line"/>
      <point x="138" y="-200" type="line"/>
      <point x="138" y="350" type="line"/>
      <point x="106" y="500" type="line"/>
      <point x="38" y="500" type="line"/>
    </contour>
  </outline>
</glyph>
<glyph name="at.case" format="2">
  <advance width="696"/>
  <guideline x="245.5" y="-10" angle="0"/>
  <guideline x="245.5" y="710" angle="0"/>
  <guideline x="575.5" y="188" angle="0"/>
  <outline>
    <contour>
      <point x="361.5" y="-10" type="curve" smooth="yes"/>
      <point x="470" y="-10"/>
      <point x="583.5" y="37"/>
      <point x="666.5" y="130.5" type="curve"/>
      <point x="586" y="187.5" type="line"/>
      <point x="522" y="124.5"/>
      <point x="440" y="90"/>
      <point x="363" y="90" type="curve" smooth="yes"/>
      <point x="242.5" y="90"/>
      <point x="131" y="173.5"/>
      <point x="131" y="348" type="curve" smooth="yes"/>
      <point x="131" y="517.5"/>
      <point x="273" y="615"/>
      <point x="392" y="615" type="curve" smooth="yes"/>
      <point x="484" y="615"/>
      <point x="565" y="555.5"/>
      <point x="565" y="437" type="curve" smooth="yes"/>
      <point x="565" y="341"/>
      <point x="519" y="268.5"/>
      <point x="485" y="268.5" type="curve" smooth="yes"/>
      <point x="476.5" y="268.5"/>
      <point x="470.5" y="278"/>
      <point x="470.5" y="293.5" type="curve"/>
      <point x="470.5" y="553.5" type="line"/>
      <point x="434" y="553.5" type="line"/>
      <point x="374.5" y="528" type="line"/>
      <point x="374.5" y="338" type="line"/>
      <point x="374.5" y="234.5"/>
      <point x="424.5" y="188"/>
      <point x="483.5" y="188" type="curve" smooth="yes"/>
      <point x="566" y="188"/>
      <point x="670" y="281.5"/>
      <point x="670" y="451.5" type="curve" smooth="yes"/>
      <point x="670" y="626.5"/>
      <point x="541" y="710"/>
      <point x="399" y="710" type="curve" smooth="yes"/>
      <point x="219.5" y="710"/>
      <point x="26" y="584.5"/>
      <point x="26" y="346" type="curve" smooth="yes"/>
      <point x="26" y="109"/>
      <point x="184.5" y="-10"/>
    </contour>
    <contour>
      <point x="301" y="183" type="curve" smooth="yes"/>
      <point x="365.5" y="183"/>
      <point x="409.5" y="243.5"/>
      <point x="409.5" y="326" type="curve"/>
      <point x="374.5" y="338" type="line"/>
      <point x="374.5" y="295.5"/>
      <point x="353" y="267"/>
      <point x="327.5" y="267" type="curve" smooth="yes"/>
      <point x="302" y="267"/>
      <point x="284.5" y="295.5"/>
      <point x="284.5" y="336.5" type="curve" smooth="yes"/>
      <point x="284.5" y="382"/>
      <point x="306" y="500"/>
      <point x="434" y="500" type="curve"/>
      <point x="434" y="553.5" type="line"/>
      <point x="249.5" y="553.5"/>
      <point x="190.5" y="414.5"/>
      <point x="190.5" y="321" type="curve" smooth="yes"/>
      <point x="190.5" y="233.5"/>
      <point x="242" y="183"/>
    </contour>
  </outline>
</glyph>
<glyph name="emdash.case" format="2">
  <advance width="510"/>
  <outline>
    <contour>
      <point x="20" y="310" type="line"/>
      <point x="490" y="310" type="line"/>
      <point x="490" y="395" type="line"/>
      <point x="20" y="395" type="line"/>
    </contour>
  </outline>
</glyph>
<glyph name="f_f_i.liga" format="2">
  <advance width="711.5"/>
  <outline>
    <contour>
      <point x="326" y="585.5" type="curve" smooth="yes"/>
      <point x="326" y="0.5" type="line"/>
      <point x="426" y="0.5" type="line"/>
      <point x="426" y="560" type="line" smooth="yes"/>
      <point x="426" y="608"/>
      <point x="437.5" y="630"/>
      <point x="467" y="630" type="curve" smooth="yes"/>
      <point x="478" y="630"/>
      <point x="492" y="626.5"/>
      <point x="508.5" y="620.5" type="curve"/>
      <point x="542.5" y="690.5" type="line"/>
      <point x="504.5" y="703"/>
      <point x="470" y="710"/>
      <point x="440" y="710" type="curve" smooth="yes"/>
      <point x="370" y="710"/>
      <point x="326" y="673"/>
    </contour>
    <contour>
      <point x="266" y="420" type="line"/>
      <point x="580" y="420" type="line"/>
      <point x="580" y="500" type="line"/>
      <point x="266" y="500" type="line"/>
    </contour>
    <component base="i" xOffset="535.5"/>
    <component base="f" identifier="4B4F3FBC"/>
  </outline>
</glyph>
<glyph name="f_i.liga" format="2">
  <advance width="462"/>
  <outline>
    <contour>
      <point x="266" y="420" type="line"/>
      <point x="378.5" y="420" type="line"/>
      <point x="378.5" y="500" type="line"/>
      <point x="266" y="500" type="line"/>
    </contour>
    <component base="i" xOffset="286" identifier="9C5994B8"/>
    <component base="f" identifier="F392EF7E"/>
  </outline>
</glyph>
<glyph name="t.ss01" format="2">
  <advance width="308.5"/>
  <anchor x="190" y="0" name="bottom"/>
  <anchor x="126" y="621" name="top"/>
  <outline>
    <contour>
      <point x="16" y="420" type="line"/>
      <point x="288" y="420" type="line"/>
      <point x="288" y="500" type="line"/>
      <point x="16" y="500" type="line"/>
    </contour>
    <contour>
      <point x="76" y="360" type="line"/>
      <point x="176" y="360" type="line"/>
      <point x="176" y="631" type="line"/>
      <point x="76" y="600" type="line"/>
    </contour>
    <contour>
      <point x="76" y="399.5" type="line"/>
      <point x="76" y="114.5" type="line" smooth="yes"/>
      <point x="76" y="27"/>
      <point x="120" y="-10"/>
      <point x="190" y="-10" type="curve" smooth="yes"/>
      <point x="220" y="-10"/>
      <point x="254.5" y="-3"/>
      <point x="292.5" y="9.5" type="curve"/>
      <point x="258.5" y="79.5" type="line"/>
      <point x="242" y="73.5"/>
      <point x="228" y="70"/>
      <point x="217" y="70" type="curve" smooth="yes"/>
      <point x="187.5" y="70"/>
      <point x="176" y="92"/>
      <point x="176" y="140" type="curve" smooth="yes"/>
      <point x="176" y="399.5" type="line"/>
    </contour>
  </outline>
</glyph>
<glyph name="t.ss02" format="2">
  <advance width="270.5"/>
  <anchor x="152" y="0" name="bottom"/>
  <anchor x="88" y="621" name="top"/>
  <outline>
    <contour>
      <point x="78" y="420" type="line"/>
      <point x="250" y="420" type="line"/>
      <point x="250" y="500" type="line"/>
      <point x="78" y="500" type="line"/>
    </contour>
    <contour>
      <point x="38" y="360" type="line"/>
      <point x="138" y="360" type="line"/>
      <point x="138" y="631" type="line"/>
      <point x="38" y="600" type="line"/>
    </contour>
    <contour>
      <point x="38" y="399.5" type="line"/>
      <point x="38" y="114.5" type="line" smooth="yes"/>
      <point x="38" y="27"/>
      <point x="82" y="-10"/>
      <point x="152" y="-10" type="curve" smooth="yes"/>
      <point x="182" y="-10"/>
      <point x="216.5" y="-3"/>
      <point x="254.5" y="9.5" type="curve"/>
      <point x="220.5" y="79.5" type="line"/>
      <point x="204" y="73.5"/>
      <point x="190" y="70"/>
      <point x="179" y="70" type="curve" smooth="yes"/>
      <point x="149.5" y="70"/>
      <point x="138" y="92"/>
      <point x="138" y="140" type="curve" smooth="yes"/>
      <point x="138" y="399.5" type="line"/>
    </contour>
  </outline>
</glyph>
<glyph name="tildecomb.narrow" format="2">
  <advance width="0"/>
  <anchor x="149" y="700" name="_top"/>
  <anchor x="149" y="870.5" name="top"/>
  <outline>
    <contour>
      <point x="26" y="803" type="curve"/>
      <point x="69" y="767" type="line"/>
      <point x="80" y="786"/>
      <point x="91.5" y="794.5"/>
      <point x="106.5" y="794.5" type="curve" smooth="yes"/>
      <point x="116" y="794.5"/>
      <point x="127" y="791"/>
      <point x="140.5" y="784" type="curve" smooth="yes"/>
      <point x="157.5" y="775"/>
      <point x="174" y="770.5"/>
      <point x="190" y="770.5" type="curve" smooth="yes"/>
      <point x="219.5" y="770.5"/>
      <point x="247" y="786.5"/>
      <point x="271.5" y="823" type="curve"/>
      <point x="228.5" y="859" type="line"/>
      <point x="217.5" y="840"/>
      <point x="206" y="831.5"/>
      <point x="191" y="831.5" type="curve" smooth="yes"/>
      <point x="181.5" y="831.5"/>
      <point x="170.5" y="835"/>
      <point x="157" y="842" type="curve" smooth="yes"/>
      <point x="140" y="851"/>
      <point x="123.5" y="855.5"/>
      <point x="108" y="855.5" type="curve" smooth="yes"/>
      <point x="78.5" y="855.5"/>
      <point x="50.5" y="839.5"/>
    </contour>
  </outline>
</glyph>
<glyph name="uni0302.narrow" format="2">
  <advance width="0"/>
  <anchor x="103" y="700" name="_top"/>
  <anchor x="103" y="859" name="top"/>
  <outline>
    <contour>
      <point x="10" y="749" type="line"/>
      <point x="67.5" y="749" type="line"/>
      <point x="103.5" y="808" type="line"/>
      <point x="139.5" y="749" type="line"/>
      <point x="197" y="749" type="line"/>
      <point x="127" y="859" type="line"/>
      <point x="80" y="859" type="line"/>
    </contour>
  </outline>
</glyph>
<glyph name="uni0308.narrow" format="2">
  <advance width="0"/>
  <anchor x="154" y="700" name="_top"/>
  <anchor x="154" y="830" name="top"/>
  <outline>
    <contour>
      <point x="223.5" y="755" type="curve" smooth="yes"/>
      <point x="244" y="755"/>
      <point x="261" y="772"/>
      <point x="261" y="792.5" type="curve" smooth="yes"/>
      <point x="261" y="813"/>
      <point x="244" y="830"/>
      <point x="223.5" y="830" type="curve" smooth="yes"/>
      <point x="203" y="830"/>
      <point x="186" y="813"/>
      <point x="186" y="792.5" type="curve" smooth="yes"/>
      <point x="186" y="772"/>
      <point x="203" y="755"/>
    </contour>
    <contour>
      <point x="83.5" y="755" type="curve" smooth="yes"/>
      <point x="104" y="755"/>
      <point x="121" y="772"/>
      <point x="121" y="792.5" type="curve" smooth="yes"/>
      <point x="121" y="813"/>
      <point x="104" y="830"/>
      <point x="83.5" y="830" type="curve" smooth="yes"/>
      <point x="63" y="830"/>
      <point x="46" y="813"/>
      <point x="46" y="792.5" type="curve" smooth="yes"/>
      <point x="46" y="772"/>
      <point x="63" y="755"/>
    </contour>
  </outline>
</glyph>
